<svg width="1334" height="463" viewBox="0 0 1334 463" fill="none" xmlns="http://www.w3.org/2000/svg">
<g clip-path="url(#clip0_1_8)">
<rect width="1334" height="463" fill="#FF815D"/>
<path d="M529.182 340.313C528.761 340.313 528.34 340.274 527.958 340.236H527.919L527.881 340.198C527.881 340.198 526.16 338.324 526.619 334.728C527.116 331.133 529.488 327.729 529.526 327.69L529.564 327.614L529.641 327.652C532.586 329.641 540.236 333.122 540.313 333.16L540.389 333.198L540.351 333.275C540.312 333.351 535.723 340.313 529.182 340.313Z" fill="black"/>
<path d="M501.03 430.736C500.226 424.998 499.691 419.146 499.5 413.332V413.294L499.538 413.255C499.576 413.217 504.778 409.928 510.133 409.545C510.592 409.507 511.051 409.507 511.434 409.507C515.029 409.507 516.177 411.305 516.215 411.343C516.253 411.496 518.357 422.359 501.106 430.774L501.03 430.812V430.736Z" fill="black"/>
<path d="M355.335 428.441C355.221 428.288 342.598 411.687 345.658 401.322V401.283H345.696C345.735 401.245 347.112 400.404 349.636 400.404C350.745 400.404 351.893 400.556 353.079 400.901C359.964 402.813 365.434 407.824 365.472 407.862L365.51 407.901L365.472 407.939C360.117 420.179 355.45 428.364 355.412 428.441L355.374 428.556L355.335 428.441Z" fill="black"/>
<path d="M321.752 465.964V465.887C321.752 465.849 321.943 463.898 323.626 461.03C325.156 458.39 328.293 454.374 334.489 450.358C346.079 442.899 350.439 436.511 355.335 428.364C355.374 428.288 360.04 420.102 365.395 407.9L365.433 407.824L404.448 441.56L394.503 465.964H321.752Z" fill="#98D8F4"/>
<path d="M454.288 465.964C454.25 465.849 451.381 457.549 449.851 441.063L450.042 434.943L499.653 406.256V413.332C499.844 419.108 500.38 424.96 501.183 430.698C501.183 430.774 501.986 439.266 505.811 444.965C507.953 448.178 510.516 450.549 512.734 452.653C516.674 456.325 520.117 459.5 520.117 465.887V465.964H454.288Z" fill="#98D8F4"/>
<path d="M404.295 441.637C404.219 441.637 397.755 440.375 388.575 433.49C384.291 430.277 379.548 424.348 375.378 419.108C374.307 417.769 373.313 416.507 372.318 415.283C370.215 412.72 367.881 410.272 365.433 408.015C365.433 408.015 354.991 397.802 345.62 401.283C347.073 396.311 406.476 329.87 409 327.04L462.015 297.626L492.347 327.04V327.078C506.308 376.191 514.302 404.535 516.138 411.343C516.177 411.458 511.854 406.868 499.385 413.409C495.789 415.436 492.309 417.769 489.057 420.294L488.369 420.829C481.522 426.222 475.594 430.889 465.496 435.747C460.523 438.118 455.244 439.878 449.851 441.025H449.775V440.949C448.551 427.791 448.474 413.141 449.583 397.382C452.108 360.968 448.857 336.029 448.474 333.122L404.372 441.675L404.295 441.637Z" fill="#6C79D9"/>
<path d="M393.968 437.659C393.853 437.659 393.738 437.621 393.624 437.582C393.241 437.391 393.088 436.932 393.241 436.55L452.49 310.975C452.682 310.593 453.141 310.44 453.523 310.593C453.906 310.784 454.059 311.243 453.906 311.625L394.656 437.238C394.542 437.506 394.236 437.659 393.968 437.659Z" fill="black"/>
<path d="M376.755 421.212C376.641 421.212 376.488 421.173 376.373 421.097C375.99 420.906 375.876 420.408 376.067 420.064L434.742 314.417C434.934 314.035 435.431 313.92 435.775 314.111C436.158 314.303 436.272 314.8 436.081 315.144L377.406 420.829C377.291 421.059 377.023 421.212 376.755 421.212Z" fill="black"/>
<path d="M358.893 403.999C358.74 403.999 358.587 403.961 358.434 403.846C358.09 403.578 358.013 403.119 358.281 402.775L424.721 315.106C424.989 314.762 425.448 314.685 425.792 314.953C426.136 315.221 426.213 315.68 425.945 316.024L359.505 403.693C359.352 403.884 359.122 403.999 358.893 403.999Z" fill="black"/>
<path d="M504.549 412.146C504.205 412.146 503.899 411.917 503.784 411.534L483.703 319.581C483.626 319.161 483.856 318.778 484.276 318.663C484.697 318.587 485.08 318.816 485.194 319.237L505.276 411.19C505.352 411.611 505.123 411.993 504.702 412.108C504.664 412.146 504.587 412.146 504.549 412.146Z" fill="black"/>
<path d="M484.85 424.157C484.467 424.157 484.123 423.851 484.085 423.468L472.878 311.396C472.839 310.975 473.145 310.593 473.566 310.554C473.987 310.516 474.369 310.822 474.408 311.243L485.615 423.315C485.653 423.736 485.347 424.119 484.926 424.157C484.888 424.157 484.888 424.157 484.85 424.157Z" fill="black"/>
<path d="M465.534 436.511C465.113 436.511 464.769 436.167 464.769 435.785L460.599 303.708C460.599 303.287 460.905 302.943 461.326 302.904C461.747 302.866 462.091 303.21 462.129 303.631L466.299 435.708C466.299 436.129 465.993 436.511 465.534 436.511Z" fill="black"/>
<path d="M565.787 340.733C559.858 340.733 550.181 336.832 540.58 332.586C540.504 332.548 532.892 329.105 529.985 327.155L529.947 327.116L511.893 317.171L525.051 291.62L548.268 301.68C552.323 303.86 563.071 309.713 564.525 310.898C565.519 311.74 565.978 312.543 565.902 313.232C565.749 314.341 564.333 315.144 564.066 315.297L562.651 316.062L564.104 316.712C564.831 317.018 567.546 318.204 573.131 320.69C575.12 321.57 576.229 322.603 576.421 323.75C576.65 325.051 575.579 326.198 575.388 326.428L574.891 326.925L575.349 327.461C576.114 328.379 576.459 329.297 576.344 330.176C576.153 331.63 574.776 332.701 574.623 332.816L574.278 333.045V333.466C574.317 334.843 574.011 335.876 573.322 336.564C572.481 337.444 571.333 337.482 571.104 337.482H570.492L570.377 338.094C570.262 338.744 569.841 340.733 565.787 340.733Z" fill="white"/>
<path d="M525.433 292.615L547.962 302.369C553.547 305.352 562.803 310.478 564.066 311.51C564.831 312.161 565.213 312.734 565.175 313.155C565.098 313.691 564.372 314.303 563.721 314.647L560.891 316.139L563.836 317.401C564.563 317.707 567.279 318.893 572.863 321.379C574.546 322.144 575.579 323.024 575.694 323.865C575.847 324.821 574.89 325.816 574.852 325.854L573.896 326.849L574.776 327.92C575.426 328.685 575.694 329.373 575.579 330.023C575.426 331.209 574.202 332.089 574.164 332.127L573.513 332.586L573.552 333.389C573.59 334.537 573.322 335.417 572.825 335.952C572.175 336.602 571.257 336.641 571.142 336.641H569.918L569.688 337.865C569.574 338.438 569.268 339.892 565.825 339.892C560.049 339.892 550.449 336.029 540.963 331.821C540.886 331.783 533.313 328.341 530.482 326.428L530.406 326.39L530.329 326.351L512.964 316.789L525.433 292.615ZM524.706 290.664L510.86 317.516L529.564 327.805C532.548 329.832 540.198 333.275 540.274 333.313C549.951 337.559 559.705 341.498 565.787 341.498C568.923 341.498 570.721 340.389 571.142 338.209C571.486 338.209 572.863 338.132 573.896 337.061C574.699 336.22 575.082 334.996 575.043 333.389C575.311 333.198 576.841 332.013 577.071 330.253C577.224 329.144 576.841 328.034 575.923 326.925C576.191 326.657 577.453 325.242 577.185 323.597C576.956 322.182 575.694 320.958 573.475 319.964C567.814 317.439 565.06 316.253 564.448 315.986C564.945 315.718 566.514 314.8 566.705 313.346C566.82 312.352 566.284 311.319 565.06 310.325C563.262 308.833 549.263 301.298 548.651 300.992L524.706 290.664Z" fill="black"/>
<path d="M527.958 340.236C521.761 339.395 474.79 307.915 456.966 284.621C447.135 271.769 447.747 256.354 450.004 245.72V245.682L470.774 244.305L470.812 244.343C482.364 254.709 499.308 269.244 514.494 279.572C526.504 287.719 537.673 294.757 548.651 301.068L548.689 301.106V301.145C548.536 302.904 545.782 311.205 538.821 317.631C532.968 322.986 530.138 327.193 529.755 327.767C524.745 336.182 527.958 340.236 527.958 340.236Z" fill="#98D8F4"/>
<path d="M562.574 316.98C562.459 316.98 562.383 316.942 562.268 316.904L552.629 312.734C552.246 312.581 552.055 312.123 552.246 311.74C552.399 311.357 552.858 311.166 553.241 311.357L562.88 315.527C563.262 315.68 563.454 316.139 563.262 316.521C563.148 316.789 562.88 316.98 562.574 316.98Z" fill="black"/>
<path d="M574.967 327.996C574.89 327.996 574.776 327.996 574.699 327.958C574.584 327.92 564.066 324.018 556.071 320.155C555.689 319.964 555.536 319.505 555.727 319.122C555.918 318.74 556.377 318.587 556.76 318.778C564.678 322.603 575.12 326.466 575.235 326.505C575.617 326.658 575.847 327.078 575.694 327.499C575.579 327.805 575.273 327.996 574.967 327.996Z" fill="black"/>
<path d="M574.164 334.001C574.049 334.001 573.972 333.963 573.858 333.925C573.743 333.887 561.006 328.532 553.776 325.166C553.394 324.975 553.241 324.516 553.394 324.133C553.585 323.751 554.044 323.598 554.427 323.751C561.618 327.117 574.317 332.433 574.431 332.51C574.814 332.663 575.005 333.122 574.852 333.504C574.737 333.81 574.47 334.001 574.164 334.001Z" fill="black"/>
<path d="M570.377 338.018C570.3 338.018 570.224 338.018 570.147 337.979C570.033 337.941 557.448 333.81 550.64 330.444C550.258 330.253 550.104 329.794 550.296 329.412C550.487 329.029 550.946 328.876 551.328 329.067C558.022 332.357 570.492 336.488 570.606 336.526C570.989 336.641 571.218 337.1 571.104 337.482C570.989 337.826 570.683 338.018 570.377 338.018Z" fill="black"/>
<path d="M549.798 332.816C549.684 332.816 549.569 332.778 549.454 332.739C549.072 332.548 548.919 332.089 549.148 331.707L556.607 317.401C556.798 317.019 557.257 316.866 557.64 317.095C558.022 317.286 558.175 317.745 557.946 318.128L550.487 332.395C550.334 332.663 550.066 332.816 549.798 332.816Z" fill="black"/>
<path d="M463.965 309.062L408.962 327.269L443.846 247.709L468.9 244.458V244.535C468.9 244.535 479.38 281.331 490.511 320.537L492.423 327.308L463.965 309.062Z" fill="#98D8F4"/>
<path d="M462.053 295.445L471.348 286.686L464.577 257.616H459.49L452.758 286.686L462.053 295.445Z" fill="black"/>
<path d="M457.693 252.567L459.49 257.616H464.577L466.375 252.567H457.693Z" fill="black"/>
<path d="M463.965 309.063L408.962 327.27L439.715 257.195L462.053 279.113L473.528 260.562L473.566 260.715C477.659 275.097 484.008 297.396 490.587 320.538L492.5 327.308L463.965 309.063Z" fill="#98D8F4"/>
<path d="M409.077 327.958C408.771 327.958 408.465 327.767 408.35 327.423C408.235 327.04 408.426 326.581 408.847 326.466L463.736 308.297C463.965 308.221 464.195 308.259 464.386 308.374L492.768 326.543C493.112 326.772 493.227 327.231 492.997 327.614C492.768 327.958 492.309 328.073 491.926 327.843L463.851 309.866L409.306 327.92C409.23 327.958 409.153 327.958 409.077 327.958Z" fill="black"/>
<path d="M488.828 315.45C488.484 315.45 488.178 315.221 488.101 314.877L479.112 283.32C478.998 282.899 479.227 282.479 479.648 282.364C480.069 282.249 480.489 282.479 480.604 282.899L489.593 314.456C489.708 314.877 489.478 315.297 489.057 315.412C488.981 315.45 488.904 315.45 488.828 315.45Z" fill="black"/>
<path d="M457.654 363.76C452.184 363.76 443.081 360.317 429.808 353.279C429.732 353.241 421.89 349.187 417.951 346.815L405.213 339.93L418.18 309.445L442.01 321.532C444.879 323.521 447.518 325.242 449.851 326.772L449.889 326.811C455.015 330.177 459.069 332.816 459.414 334.193C459.643 335.073 459.681 336.603 457.654 337.329L455.933 337.941L467.026 343.449C468.9 344.367 471.042 345.897 470.583 347.924C470.353 348.919 469.588 349.722 469.397 349.875L468.861 350.334L469.282 350.908C470.085 352.056 470.391 353.088 470.124 353.968C469.741 355.345 468.135 356.148 467.982 356.225L467.446 356.454L467.523 357.028C467.714 358.099 467.523 358.979 466.987 359.591C465.916 360.891 463.698 360.968 463.43 361.006H462.971L462.78 361.427C461.938 362.995 460.255 363.76 457.654 363.76Z" fill="white"/>
<path d="M418.563 310.516L441.627 322.221C444.458 324.171 447.135 325.931 449.469 327.461L449.507 327.499C452.223 329.297 454.594 330.827 456.239 332.089C458.381 333.696 458.649 334.308 458.687 334.422C459.108 336.067 457.807 336.526 457.386 336.641L453.982 337.865L457.233 339.471L466.719 344.176C468.364 344.979 470.2 346.28 469.856 347.81C469.703 348.537 469.129 349.187 468.938 349.34L467.829 350.258L468.67 351.405C469.359 352.323 469.588 353.165 469.397 353.815C469.167 354.657 468.173 355.345 467.637 355.575L466.605 356.072L466.796 357.219C466.949 358.061 466.796 358.711 466.413 359.17C465.725 360.012 464.157 360.279 463.43 360.318L462.512 360.356L462.091 361.159C461.097 363.11 458.534 363.11 457.692 363.11C452.337 363.11 443.349 359.706 430.191 352.706C430.114 352.668 422.311 348.613 418.371 346.28H418.333H418.295L406.208 339.739L418.563 310.516ZM417.798 308.374L404.219 340.275L417.53 347.466C421.508 349.837 429.349 353.892 429.426 353.93C442.813 361.044 452.031 364.525 457.654 364.525C460.523 364.525 462.474 363.569 463.43 361.733C463.812 361.733 466.26 361.58 467.561 360.05C468.249 359.247 468.479 358.176 468.288 356.875C468.632 356.722 470.391 355.804 470.85 354.121C471.156 352.974 470.85 351.75 469.856 350.411C470.162 350.143 471.042 349.225 471.309 348.039C471.615 346.662 471.195 344.597 467.37 342.723L457.884 338.018C458.572 337.788 460.867 336.756 460.14 333.963C459.72 332.319 455.971 329.871 450.31 326.16C447.939 324.592 445.261 322.871 442.392 320.882L417.798 308.374Z" fill="black"/>
<path d="M417.147 361.044C416.344 361.044 415.579 360.929 414.852 360.738H414.814V360.7C414.699 360.547 412.443 356.951 417.568 347.351L417.606 347.274L429.655 353.815L429.617 353.891C429.502 354.006 423.765 361.044 417.147 361.044Z" fill="black"/>
<path d="M414.814 360.738C405.137 354.542 396.301 346.012 389.875 336.679C383.181 326.925 379.662 316.98 380.007 308.642C380.274 301.833 382.952 291.2 394.083 279.189C405.252 267.141 422.541 256.163 445.491 246.562H445.529L449.507 249.316L419.519 305.276C426.939 310.898 435.928 317.019 442.392 320.882L442.469 320.92L442.431 320.997C442.392 321.035 439.409 326.007 432.83 331.401C431.912 332.166 431.032 332.854 430.229 333.504C425.333 337.406 421.776 340.236 417.721 347.427C412.596 356.76 414.814 360.738 414.814 360.738Z" fill="#98D8F4"/>
<path d="M454.938 338.285C454.824 338.285 454.709 338.247 454.594 338.209L447.671 334.728C447.288 334.537 447.135 334.078 447.327 333.696C447.518 333.313 447.977 333.16 448.359 333.351L455.283 336.832C455.665 337.023 455.818 337.482 455.627 337.865C455.474 338.132 455.206 338.285 454.938 338.285Z" fill="black"/>
<path d="M468.555 351.176C468.479 351.176 468.402 351.176 468.326 351.138C461.441 349.072 453.179 345.247 448.895 343.143C448.512 342.952 448.359 342.493 448.551 342.11C448.742 341.728 449.201 341.575 449.583 341.766C453.829 343.832 461.976 347.657 468.785 349.684C469.206 349.799 469.435 350.22 469.282 350.64C469.206 350.946 468.9 351.176 468.555 351.176Z" fill="black"/>
<path d="M467.37 357.219C467.293 357.219 467.217 357.219 467.14 357.181C467.026 357.143 455.359 353.624 446.026 349.302C445.644 349.11 445.491 348.651 445.644 348.269C445.835 347.886 446.294 347.733 446.677 347.886C455.895 352.17 467.446 355.651 467.561 355.689C467.982 355.804 468.211 356.225 468.058 356.645C468.02 356.99 467.714 357.219 467.37 357.219Z" fill="black"/>
<path d="M462.588 361.656C462.55 361.656 462.512 361.656 462.435 361.656C462.129 361.618 454.785 360.203 443.655 354.771C443.272 354.58 443.119 354.121 443.31 353.738C443.502 353.356 443.961 353.203 444.343 353.394C455.283 358.711 462.665 360.126 462.741 360.126C463.162 360.203 463.43 360.585 463.353 361.006C463.277 361.388 462.933 361.656 462.588 361.656Z" fill="black"/>
<path d="M419.404 306.041C419.289 306.041 419.175 306.002 419.06 305.964C418.677 305.773 418.563 305.314 418.754 304.931L430.65 282.785C430.841 282.402 431.3 282.287 431.682 282.479C432.065 282.67 432.18 283.129 431.988 283.511L420.093 305.62C419.94 305.888 419.672 306.041 419.404 306.041Z" fill="black"/>
<path d="M442.737 322.871C442.584 322.871 442.431 322.833 442.278 322.718L411.372 300.724C411.027 300.494 410.951 299.997 411.18 299.653C411.41 299.309 411.907 299.232 412.251 299.462L443.157 321.456C443.502 321.685 443.578 322.182 443.349 322.527C443.196 322.756 442.966 322.871 442.737 322.871Z" fill="black"/>
<path d="M464.004 309.751C463.621 309.751 463.277 309.445 463.239 309.024L461.288 279.113C461.25 278.692 461.594 278.309 462.015 278.309C462.435 278.271 462.818 278.615 462.818 279.036L464.769 308.948C464.807 309.368 464.463 309.751 464.042 309.751H464.004Z" fill="black"/>
<path d="M462.206 280.298L433.519 252.376C433.213 252.07 433.213 251.611 433.519 251.305C433.825 250.999 434.284 250.999 434.59 251.305L461.9 277.927L478.424 251.458C478.654 251.114 479.113 250.999 479.495 251.228C479.878 251.458 479.954 251.917 479.725 252.3L462.206 280.298Z" fill="black"/>
<path d="M453.179 290.435C454.89 290.435 456.277 289.048 456.277 287.336C456.277 285.625 454.89 284.238 453.179 284.238C451.468 284.238 450.081 285.625 450.081 287.336C450.081 289.048 451.468 290.435 453.179 290.435Z" fill="black"/>
<path d="M453.179 302.789C454.89 302.789 456.277 301.402 456.277 299.691C456.277 297.98 454.89 296.593 453.179 296.593C451.468 296.593 450.081 297.98 450.081 299.691C450.081 301.402 451.468 302.789 453.179 302.789Z" fill="black"/>
<path d="M445.261 250.961C440.633 250.961 436.846 247.174 436.846 242.546C436.846 237.917 440.633 234.131 445.261 234.131C449.89 234.131 453.676 237.917 453.676 242.546C453.676 247.174 449.928 250.961 445.261 250.961Z" fill="white"/>
<path d="M445.261 234.858C449.469 234.858 452.911 238.3 452.911 242.508C452.911 246.715 449.469 250.158 445.261 250.158C441.054 250.158 437.611 246.715 437.611 242.508C437.611 238.3 441.054 234.858 445.261 234.858ZM445.261 233.328C440.174 233.328 436.081 237.459 436.081 242.508C436.081 247.557 440.212 251.688 445.261 251.688C450.31 251.688 454.441 247.557 454.441 242.508C454.441 237.459 450.348 233.328 445.261 233.328Z" fill="black"/>
<path d="M443.846 244.42C443.54 244.42 443.272 244.229 443.119 243.961C442.966 243.578 443.157 243.12 443.54 242.967L449.583 240.48C449.966 240.327 450.425 240.518 450.578 240.901C450.731 241.283 450.54 241.742 450.157 241.895L444.114 244.382C444.037 244.42 443.961 244.42 443.846 244.42Z" fill="black"/>
<path d="M461.823 252.835C457.233 252.835 453.332 249.545 450.807 243.617C443.196 225.563 446.217 218.716 453.523 213.514C453.561 213.476 460.026 209.115 467.561 209.115C470.544 209.115 473.298 209.804 475.785 211.142C481.637 214.317 482.555 225.754 477.965 237.764C474.522 246.791 468.02 252.835 461.823 252.835Z" fill="white"/>
<path d="M467.561 209.918C470.43 209.918 473.069 210.569 475.44 211.869C477.965 213.246 479.571 216.459 480.03 220.973C480.489 225.83 479.533 231.683 477.276 237.535C473.949 246.256 467.714 252.108 461.823 252.108C457.578 252.108 453.906 249.01 451.534 243.349C444.152 225.792 446.982 219.175 453.982 214.202C454.25 213.973 460.408 209.918 467.561 209.918ZM467.561 208.388C459.72 208.388 453.102 212.902 453.102 212.902C444.917 218.716 442.775 226.519 450.119 243.923C452.949 250.616 457.272 253.6 461.823 253.6C468.173 253.6 474.981 247.786 478.692 238.07C483.511 225.486 482.287 213.82 476.167 210.492C473.298 208.962 470.353 208.388 467.561 208.388Z" fill="black"/>
<path d="M453.102 212.902C445.988 217.951 443.463 224.492 447.709 237.535C460.37 232.486 459.911 215.006 459.911 215.006C470.468 223.191 481.675 222.694 481.675 222.694C481.522 216.88 479.61 212.405 476.205 210.531C465.266 204.602 453.102 212.902 453.102 212.902Z" fill="black"/>
<path d="M470.736 236.54C470.43 236.54 470.162 236.387 470.047 236.081C469.894 235.699 470.047 235.24 470.43 235.087C470.889 234.896 471.31 234.513 471.577 234.054C471.998 233.327 472.075 231.491 471.769 227.896C471.73 227.475 472.036 227.093 472.457 227.054C472.878 227.016 473.26 227.322 473.299 227.743C473.643 231.874 473.528 233.71 472.878 234.819C472.457 235.546 471.769 236.158 471.042 236.464C470.927 236.502 470.851 236.54 470.736 236.54Z" fill="black"/>
<path d="M466.26 230.688C466.26 230.688 466.222 230.688 466.26 230.688C465.801 230.688 465.495 230.306 465.495 229.885L465.534 228.929C465.534 228.508 465.916 228.164 466.337 228.202C466.758 228.202 467.102 228.585 467.064 229.005L467.026 229.961C467.026 230.382 466.681 230.688 466.26 230.688Z" fill="black"/>
<path d="M476.779 228.776C476.779 228.776 476.741 228.776 476.779 228.776C476.32 228.776 476.014 228.393 476.014 227.972L476.052 227.054C476.052 226.634 476.435 226.289 476.856 226.328C477.277 226.328 477.621 226.71 477.583 227.131L477.544 228.049C477.544 228.47 477.2 228.776 476.779 228.776Z" fill="black"/>
<path d="M467.599 241.245C465.457 241.245 463.736 239.524 463.736 237.42C463.736 236.999 464.08 236.655 464.501 236.655C464.922 236.655 465.266 236.999 465.266 237.42C465.266 238.682 466.299 239.715 467.599 239.715C467.676 239.715 467.752 239.715 467.829 239.715C467.943 239.715 468.058 239.677 468.173 239.677C468.594 239.677 468.938 240.021 468.938 240.442C468.938 240.863 468.594 241.207 468.173 241.207C468.096 241.207 468.02 241.207 467.943 241.207C467.829 241.245 467.714 241.245 467.599 241.245Z" fill="black"/>
<path d="M504.319 443.741C504.052 443.741 503.784 443.588 503.631 443.358C503.478 443.052 503.516 442.67 503.784 442.402L537.291 413.141C537.903 412.567 538.591 412.146 539.165 411.84C541.613 410.501 544.405 410.234 547.083 411.037C549.76 411.84 551.94 413.6 553.241 416.048L553.623 416.774C554.006 417.501 554.274 418.19 554.503 418.916C555.268 421.594 554.924 424.386 553.585 426.796C552.246 429.206 550.028 430.965 547.35 431.692L504.511 443.703C504.472 443.741 504.396 443.741 504.319 443.741ZM544.137 412.108C542.684 412.108 541.269 412.452 539.968 413.179C539.471 413.447 538.859 413.829 538.362 414.288L507.379 441.331L546.968 430.238C549.263 429.588 551.137 428.096 552.285 426.031C553.432 423.965 553.738 421.594 553.088 419.299C552.935 418.687 552.667 418.075 552.361 417.463L551.979 416.736C550.869 414.671 548.995 413.141 546.7 412.452C545.859 412.223 544.979 412.108 544.137 412.108Z" fill="black"/>
<path d="M539.968 458.008C539.662 458.008 539.356 457.817 539.241 457.472C536.564 449.669 529.947 444.965 519.581 443.549C512.046 442.517 505.161 443.702 504.549 443.817L494.757 446.915C494.336 447.03 493.915 446.801 493.801 446.418C493.686 446.036 493.915 445.577 494.298 445.462L504.128 442.364C504.166 442.364 504.204 442.364 504.204 442.325C504.51 442.287 511.625 440.948 519.734 442.058C530.597 443.511 537.826 448.675 540.695 456.975C540.848 457.358 540.618 457.817 540.236 457.931C540.121 458.008 540.045 458.008 539.968 458.008Z" fill="black"/>
<path d="M346.423 440.451C346.308 440.451 346.155 440.413 346.041 440.336L310.965 420.485C308.097 418.878 306.031 416.239 305.151 413.064C304.272 409.89 304.692 406.562 306.299 403.731C306.834 402.775 307.561 401.819 308.517 400.901L309.282 400.174C311.654 397.917 314.752 396.693 318.042 396.77C321.331 396.846 324.391 398.185 326.648 400.556C327.451 401.398 328.14 402.354 328.713 403.425L347.073 439.304C347.226 439.61 347.15 439.954 346.92 440.222C346.806 440.375 346.614 440.451 346.423 440.451ZM317.774 398.3C315.096 398.3 312.419 399.294 310.315 401.283L309.55 402.01C308.747 402.775 308.097 403.617 307.638 404.458C306.222 406.983 305.84 409.889 306.643 412.643C307.408 415.397 309.206 417.731 311.73 419.146L344.587 437.735L327.375 404.114C326.877 403.157 326.265 402.316 325.539 401.589C323.435 399.409 320.643 398.3 317.774 398.3Z" fill="black"/>
<path d="M344.587 456.593C344.358 456.593 344.167 456.516 344.014 456.325L336.937 448.254C336.669 447.948 336.708 447.451 337.014 447.183C337.32 446.916 337.817 446.954 338.085 447.26L345.161 455.331C345.429 455.637 345.391 456.134 345.085 456.401C344.932 456.516 344.779 456.593 344.587 456.593Z" fill="black"/>
<path d="M502.254 457.396C502.063 457.396 501.833 457.319 501.68 457.128C501.412 456.822 501.412 456.325 501.718 456.057L509.254 449.21C509.56 448.943 510.057 448.943 510.325 449.249C510.592 449.555 510.592 450.052 510.286 450.32L502.751 457.166C502.636 457.319 502.445 457.396 502.254 457.396Z" fill="black"/>
<path d="M354.991 447.336C354.838 447.336 354.647 447.298 354.532 447.183L346.308 440.757C339.806 442.746 333.954 441.714 328.752 440.757C322.134 439.572 316.397 438.539 310.659 443.664C310.353 443.932 309.856 443.932 309.588 443.588C309.321 443.282 309.321 442.785 309.665 442.517C315.976 436.894 322.326 438.042 329.058 439.227C334.413 440.184 339.921 441.178 346.27 439.151C346.5 439.074 346.767 439.113 346.997 439.266L355.527 445.959C355.871 446.227 355.909 446.686 355.641 447.03C355.45 447.222 355.221 447.336 354.991 447.336Z" fill="black"/>
<path d="M373.045 466.653C372.969 466.653 372.854 466.653 372.777 466.614C372.395 466.461 372.165 466.041 372.318 465.62C375.837 455.713 387.58 446.839 401.083 449.058C401.503 449.134 401.771 449.517 401.695 449.937C401.618 450.358 401.236 450.626 400.815 450.549C388.116 448.446 377.061 456.822 373.734 466.117C373.657 466.461 373.351 466.653 373.045 466.653Z" fill="black"/>
<path d="M477.506 466.652C477.162 466.652 476.856 466.423 476.741 466.041C475.173 459.003 470.659 455.024 467.102 452.882C462.053 449.822 455.742 448.713 450.999 450.014C450.578 450.128 450.157 449.899 450.042 449.478C449.928 449.057 450.157 448.637 450.578 448.522C455.665 447.107 462.474 448.331 467.867 451.582C471.654 453.839 476.511 458.161 478.194 465.696C478.271 466.117 478.041 466.5 477.621 466.614C477.621 466.653 477.544 466.652 477.506 466.652Z" fill="black"/>
<path d="M782.55 428.441C782.511 428.364 777.845 420.179 772.49 407.939V407.901L772.528 407.862C772.605 407.786 778.648 400.557 784.768 399.333C785.648 399.141 786.451 399.065 787.216 399.065C791.079 399.065 792.342 401.283 792.342 401.283C795.402 411.649 782.817 428.249 782.664 428.402L782.588 428.479L782.55 428.441Z" fill="black"/>
<path d="M636.894 430.774C619.643 422.359 621.747 411.458 621.785 411.381C621.823 411.305 622.741 409.622 626.298 409.622C626.719 409.622 627.14 409.622 627.599 409.66C632.954 410.042 638.424 413.217 638.462 413.255L638.5 413.294V413.332C638.309 419.146 637.773 424.998 636.97 430.736V430.85L636.894 430.774Z" fill="black"/>
<path d="M617.883 465.964V465.887C617.883 459.5 621.288 456.325 625.266 452.653C627.522 450.587 630.047 448.216 632.227 444.965C636.052 439.265 636.855 430.774 636.855 430.697C637.659 424.96 638.194 419.108 638.385 413.294V406.217L687.996 434.905L688.187 441.025C687.919 443.894 687.613 446.686 687.231 449.363V449.44H687.154C686.236 449.363 685.357 449.363 684.477 449.363C671.319 449.363 658.734 455.56 650.74 465.964L650.702 466.002H617.883V465.964V465.964Z" fill="#F9494B"/>
<path d="M662.177 465.964L660.226 456.708L660.264 456.669C667.379 451.773 675.717 449.172 684.4 449.172H684.477C685.357 449.172 686.236 449.21 687.154 449.249H687.231V449.325C685.701 460.303 683.788 465.811 683.75 465.888V465.926L662.177 465.964Z" fill="black"/>
<path d="M778.534 465.964C770.501 455.56 757.878 449.363 744.72 449.363C742.158 449.363 739.595 449.593 737.07 450.052H736.994L731.295 436.129L742.54 404.726L772.566 407.824V407.862C777.921 420.102 782.55 428.249 782.626 428.326C787.522 436.511 791.883 442.861 803.473 450.32C809.669 454.336 812.806 458.314 814.336 460.991C816.019 463.86 816.21 465.849 816.21 465.849V465.926H778.534V465.964Z" fill="#F9494B"/>
<path d="M743.535 465.964L736.956 449.899H737.032C739.557 449.44 742.158 449.21 744.72 449.21H744.797C752.217 449.21 759.561 451.161 765.987 454.871L766.026 454.91L765.069 466.002L743.535 465.964Z" fill="black"/>
<path d="M572.787 340.542C568.885 340.542 567.967 339.089 567.623 337.979L567.47 337.444H566.934C566.628 337.444 565.519 337.367 564.716 336.526C564.066 335.837 563.721 334.805 563.76 333.428V333.007L563.415 332.777C563.262 332.663 561.885 331.63 561.694 330.138C561.579 329.258 561.924 328.34 562.689 327.422L563.148 326.887L562.65 326.39C562.536 326.275 561.388 325.051 561.618 323.712C561.809 322.565 562.918 321.532 564.907 320.652C570.453 318.166 573.207 316.98 573.934 316.674L575.388 316.024L573.972 315.259C573.705 315.106 572.289 314.303 572.136 313.193C572.06 312.467 572.481 311.702 573.513 310.86C574.852 309.713 584.376 304.511 589.77 301.604C600.786 295.254 611.993 288.216 624.003 280.069C639.036 269.856 655.789 255.512 667.341 245.147L680.843 254.671C682.909 264.884 682.182 281.14 682.067 283.435C666.461 297.664 642.746 312.887 628.747 319.466C601.78 332.165 581.967 340.542 572.787 340.542Z" fill="white"/>
<path d="M667.379 246.218L680.154 255.206C682.067 264.922 681.455 279.992 681.302 283.167C665.772 297.281 642.287 312.352 628.402 318.854C601.589 331.4 581.852 339.777 572.787 339.777C569 339.777 568.541 338.285 568.35 337.75L568.005 336.717L566.896 336.679C566.705 336.679 565.825 336.641 565.213 335.99C564.716 335.455 564.448 334.613 564.486 333.428L564.525 332.624L563.874 332.165C563.836 332.127 562.612 331.247 562.459 330.062C562.383 329.373 562.65 328.685 563.262 327.958L564.142 326.887L563.186 325.892C563.148 325.854 562.191 324.86 562.344 323.903C562.497 323.062 563.492 322.182 565.175 321.417C570.721 318.931 573.475 317.745 574.202 317.439L577.147 316.177L574.317 314.685C573.666 314.341 572.94 313.729 572.863 313.193C572.825 312.773 573.207 312.161 573.972 311.549C575.12 310.592 583.152 306.117 590.114 302.407H590.152H590.19C601.206 296.096 612.414 289.019 624.462 280.834C639.265 270.698 655.827 256.545 667.379 246.218ZM667.264 244.267L667.226 244.305C655.674 254.671 638.73 269.206 623.544 279.533C611.534 287.681 600.365 294.719 589.387 301.03C588.775 301.336 574.776 308.871 572.978 310.363C571.754 311.396 571.218 312.39 571.371 313.385C571.563 314.838 573.131 315.756 573.628 316.024C572.978 316.292 570.262 317.477 564.601 320.002C562.383 320.996 561.12 322.22 560.891 323.636C560.623 325.28 561.847 326.696 562.153 326.963C561.235 328.034 560.853 329.182 561.006 330.291C561.235 332.051 562.803 333.236 563.033 333.428C562.995 335.034 563.377 336.258 564.18 337.1C565.213 338.132 566.552 338.247 566.934 338.247C567.585 340.313 569.535 341.345 572.825 341.345C582.158 341.345 602.086 332.93 629.091 320.27C643.243 313.652 667.226 298.238 682.832 283.932L682.87 283.894V283.856C682.87 283.664 683.903 265.304 681.608 254.327V254.288L667.264 244.267Z" fill="black"/>
<path d="M575.426 316.98C575.12 316.98 574.852 316.789 574.737 316.521C574.584 316.139 574.737 315.68 575.12 315.527L584.759 311.358C585.141 311.205 585.6 311.358 585.753 311.74C585.906 312.123 585.753 312.581 585.371 312.734L575.732 316.904C575.617 316.942 575.541 316.98 575.426 316.98Z" fill="black"/>
<path d="M563.033 327.996C562.727 327.996 562.421 327.805 562.306 327.499C562.153 327.117 562.383 326.658 562.765 326.505C562.88 326.466 573.322 322.603 581.24 318.778C581.622 318.587 582.081 318.74 582.273 319.122C582.464 319.505 582.311 319.964 581.928 320.155C573.972 324.018 563.415 327.92 563.301 327.958C563.224 327.996 563.109 327.996 563.033 327.996Z" fill="black"/>
<path d="M563.836 334.002C563.53 334.002 563.262 333.81 563.148 333.543C562.995 333.16 563.186 332.701 563.568 332.548C563.683 332.51 576.382 327.155 583.573 323.789C583.956 323.598 584.415 323.789 584.606 324.171C584.797 324.554 584.606 325.013 584.223 325.204C576.994 328.57 564.295 333.925 564.142 333.963C564.027 334.002 563.951 334.002 563.836 334.002Z" fill="black"/>
<path d="M567.623 338.018C567.317 338.018 567.011 337.826 566.896 337.482C566.781 337.1 566.973 336.641 567.393 336.526C567.508 336.488 580.016 332.357 586.671 329.067C587.054 328.876 587.513 329.029 587.704 329.412C587.895 329.794 587.742 330.253 587.36 330.444C580.59 333.81 568.005 337.941 567.852 337.979C567.776 338.018 567.699 338.018 567.623 338.018Z" fill="black"/>
<path d="M588.201 332.816C587.934 332.816 587.666 332.663 587.513 332.395L580.054 318.089C579.863 317.707 580.016 317.248 580.36 317.057C580.743 316.865 581.202 317.018 581.393 317.363L588.852 331.668C589.043 332.051 588.89 332.51 588.546 332.701C588.431 332.777 588.316 332.816 588.201 332.816Z" fill="black"/>
<path d="M664.549 229.388L630.965 258.343C631.653 261.633 633.796 264.463 636.779 266.069C640.566 268.135 642.172 269.168 643.358 271.883L639.495 278.463C639.495 278.463 642.976 290.052 657.664 288.522L670.286 244.956L664.549 229.388Z" fill="#F9494B"/>
<path d="M643.32 272.648C643.167 272.648 643.052 272.61 642.899 272.534C642.555 272.304 642.44 271.845 642.669 271.463L656.554 249.431C656.784 249.086 657.243 248.972 657.625 249.201C657.97 249.431 658.084 249.89 657.855 250.272L643.97 272.304C643.817 272.534 643.587 272.648 643.32 272.648Z" fill="black"/>
<path d="M694.154 247.748L669.062 244.496V244.573C669.062 244.573 664.893 259.184 659.04 279.763L679.122 292.806L718.404 285.08C704.673 263.927 694.46 248.245 694.154 247.748Z" fill="white"/>
<path d="M709.722 444.429C691.859 444.429 672.657 436.818 650.97 421.097C646.992 418.266 642.822 415.704 638.5 413.447C625.878 407.48 621.708 411.496 621.747 411.381C623.583 404.573 631.615 376.23 645.576 327.117L647.451 320.538C652.691 302.025 657.816 284.047 661.756 270.239V270.201H661.871C662.98 270.201 672.925 270.583 678.471 283.703C684.706 270.813 697.367 268.9 704.405 268.9C706.585 268.9 707.962 269.091 708.001 269.091H708.039V269.13C733.016 307.609 791.194 397.497 792.342 401.36C789.052 398.109 781.364 399.103 772.528 408.092C772.031 408.627 769.162 411.649 765.643 415.359C752.791 428.862 734.814 444.429 709.722 444.429Z" fill="#F696BB"/>
<path d="M678.28 284.583C677.974 284.583 677.707 284.391 677.592 284.124C672.046 270.889 662.101 270.966 661.68 270.966C661.259 270.966 660.915 270.659 660.915 270.239C660.915 269.818 661.221 269.474 661.642 269.436C662.101 269.436 672.275 269.283 678.357 282.058C682.985 273.681 690.444 270.354 696.067 269.053C702.454 267.561 707.695 268.326 707.924 268.364C708.345 268.441 708.613 268.824 708.574 269.244C708.498 269.665 708.115 269.933 707.695 269.894C707.656 269.894 702.454 269.168 696.373 270.583C688.264 272.457 682.411 277.047 679.007 284.2C678.854 284.43 678.586 284.583 678.28 284.583Z" fill="black"/>
<path d="M681.072 363.492C678.165 363.492 676.176 362.766 675.22 361.312L674.991 360.968H674.608C673.69 360.93 671.931 360.624 671.051 359.553C670.515 358.902 670.324 358.061 670.515 356.99L670.592 356.416L670.056 356.187C669.865 356.11 668.297 355.307 667.914 353.93C667.647 353.012 667.953 351.979 668.756 350.87L669.138 350.334L668.641 349.875C668.488 349.722 667.188 348.498 667.379 347.045C667.532 345.744 668.756 344.52 670.974 343.449L682.067 337.941L680.346 337.329C679.466 337.023 678.051 336.182 678.586 334.193C678.93 332.854 682.985 330.177 688.072 326.811C690.444 325.242 693.121 323.521 695.99 321.532C702.798 317.478 716.645 308.298 723.645 303.019L724.218 302.598L690.176 248.436L693.312 245.3C715.153 254.48 732.327 265.687 744.414 278.654C756.731 291.85 758.949 301.757 759.332 304.473C760.594 313.194 759.408 324.936 739.136 338.209C725.901 347.007 695.263 363.492 681.072 363.492Z" fill="white"/>
<path d="M693.504 246.18C715 255.283 731.945 266.337 743.879 279.151C756.042 292.194 758.223 301.91 758.605 304.587C759.141 308.336 759.408 313.423 756.693 319.275C753.747 325.548 747.742 331.706 738.753 337.597C732.978 341.46 722 347.924 710.104 353.547C697.252 359.591 687.192 362.804 681.111 362.804C678.471 362.804 676.712 362.192 675.909 360.968L675.488 360.317L674.723 360.279C673.996 360.241 672.428 360.012 671.739 359.132C671.357 358.673 671.242 358.022 671.357 357.181L671.548 356.033L670.515 355.536C669.98 355.268 669.024 354.618 668.756 353.777C668.565 353.127 668.832 352.285 669.483 351.367L670.286 350.258L669.291 349.34C669.253 349.301 668.144 348.269 668.259 347.159C668.412 345.897 670.056 344.826 671.433 344.138L680.919 339.433L684.171 337.827L680.766 336.603C680.346 336.45 679.045 335.991 679.466 334.384C679.504 334.269 679.772 333.657 681.914 332.051C683.559 330.788 685.93 329.258 688.646 327.461C691.017 325.931 693.657 324.171 696.525 322.182C703.372 318.089 717.219 308.948 724.218 303.631L725.328 302.789L724.563 301.604L691.209 248.551L693.504 246.18ZM693.121 244.344L689.181 248.283L723.186 302.369C716.224 307.647 702.416 316.789 695.569 320.843C692.7 322.832 690.023 324.592 687.651 326.122C681.99 329.832 678.242 332.28 677.821 333.925C677.094 336.717 679.389 337.75 680.078 337.979L670.592 342.684C668.106 343.908 666.767 345.324 666.576 346.892C666.346 348.69 667.8 350.105 668.067 350.373C667.111 351.711 666.767 352.935 667.111 354.083C667.57 355.766 669.33 356.684 669.674 356.837C669.483 358.137 669.712 359.208 670.401 360.012C671.701 361.542 674.187 361.656 674.532 361.694C675.641 363.339 677.821 364.181 681.034 364.181C695.416 364.181 726.246 347.618 739.557 338.744C760.173 325.242 761.359 313.232 760.059 304.281C759.676 301.489 757.381 291.391 744.95 278.042C732.71 264.922 715.306 253.562 693.159 244.344H693.121Z" fill="black"/>
<path d="M683.062 338.285C682.794 338.285 682.526 338.132 682.373 337.865C682.182 337.482 682.335 337.023 682.717 336.832L689.641 333.351C690.023 333.16 690.482 333.313 690.673 333.696C690.865 334.078 690.711 334.537 690.329 334.728L683.406 338.209C683.291 338.247 683.176 338.285 683.062 338.285Z" fill="black"/>
<path d="M669.444 351.176C669.1 351.176 668.794 350.946 668.718 350.64C668.603 350.22 668.832 349.799 669.215 349.684C676.023 347.657 684.171 343.87 688.416 341.766C688.799 341.575 689.258 341.728 689.449 342.11C689.64 342.493 689.487 342.952 689.105 343.143C684.821 345.247 676.559 349.072 669.674 351.138C669.597 351.176 669.521 351.176 669.444 351.176Z" fill="black"/>
<path d="M670.63 357.219C670.286 357.219 669.98 356.99 669.903 356.684C669.789 356.263 670.018 355.842 670.401 355.727C670.515 355.689 682.067 352.208 691.285 347.924C691.668 347.733 692.127 347.924 692.318 348.307C692.509 348.689 692.318 349.148 691.935 349.34C682.641 353.662 670.936 357.181 670.821 357.219C670.783 357.219 670.707 357.219 670.63 357.219Z" fill="black"/>
<path d="M675.411 361.656C675.067 361.656 674.723 361.388 674.646 361.044C674.57 360.623 674.838 360.241 675.258 360.164C675.335 360.164 682.717 358.749 693.657 353.432C694.039 353.241 694.498 353.394 694.689 353.777C694.881 354.159 694.728 354.618 694.345 354.809C683.214 360.241 675.87 361.618 675.564 361.694C675.488 361.656 675.45 361.656 675.411 361.656Z" fill="black"/>
<path d="M673.843 342.225C673.576 342.225 673.308 342.072 673.155 341.843L663.936 325.128C663.745 324.745 663.86 324.286 664.242 324.095C664.625 323.904 665.084 324.018 665.275 324.401L674.494 341.116C674.685 341.498 674.57 341.957 674.188 342.149C674.111 342.187 673.958 342.225 673.843 342.225Z" fill="black"/>
<path d="M661.833 335.532C661.756 335.532 661.68 335.531 661.603 335.493C661.183 335.378 660.991 334.919 661.106 334.537L664.243 324.592C664.319 324.401 664.434 324.248 664.625 324.133C664.816 324.056 665.008 324.018 665.199 324.095L674.914 327.422C675.297 327.575 675.526 327.996 675.373 328.379C675.22 328.761 674.799 328.991 674.417 328.838L665.428 325.778L662.521 334.958C662.445 335.34 662.139 335.532 661.833 335.532Z" fill="black"/>
<path d="M663.512 325.633C671.027 322.054 674.315 313.263 670.855 305.996C667.394 298.729 658.497 295.738 650.982 299.316C643.467 302.894 640.18 311.686 643.64 318.953C647.1 326.22 655.997 329.211 663.512 325.633Z" fill="#F9494B"/>
<path d="M657.243 313.805C657.982 313.805 658.581 313.206 658.581 312.467C658.581 311.727 657.982 311.128 657.243 311.128C656.503 311.128 655.904 311.727 655.904 312.467C655.904 313.206 656.503 313.805 657.243 313.805Z" fill="black"/>
<path d="M690.061 226.289L741.469 249.469C738.639 252.835 736.65 256.775 735.655 261.059C733.475 270.889 730.644 273.031 726.016 274.561L720.202 269.168C711.711 272.649 712.476 283.856 697.788 282.708L685.777 238.3L690.061 226.289Z" fill="#F9494B"/>
<path d="M633.681 443.741C633.604 443.741 633.528 443.741 633.489 443.702L590.649 431.692C585.141 430.124 581.89 424.386 583.458 418.878C583.65 418.151 583.956 417.463 584.338 416.736L584.721 416.009C587.436 410.96 593.786 409.086 598.797 411.802C599.409 412.146 600.097 412.567 600.709 413.141L634.216 442.402C634.484 442.631 634.56 443.014 634.369 443.358C634.216 443.588 633.948 443.741 633.681 443.741ZM593.862 412.108C590.726 412.108 587.666 413.791 586.059 416.774L585.677 417.501C585.333 418.113 585.103 418.725 584.95 419.337C583.611 424.042 586.365 428.938 591.07 430.238L630.659 441.331L599.715 414.288C599.179 413.791 598.605 413.447 598.07 413.141C596.731 412.452 595.278 412.108 593.862 412.108Z" fill="black"/>
<path d="M598.032 458.008C597.955 458.008 597.879 458.008 597.764 457.97C597.381 457.817 597.152 457.396 597.305 457.013C600.174 448.713 607.403 443.55 618.266 442.096C626.375 440.987 633.489 442.326 633.795 442.364C633.834 442.364 633.872 442.364 633.872 442.402L643.702 445.5C644.123 445.615 644.314 446.074 644.199 446.457C644.085 446.877 643.626 447.069 643.243 446.954L633.451 443.856C632.839 443.741 625.954 442.593 618.419 443.588C608.053 445.003 601.436 449.669 598.758 457.511C598.644 457.817 598.338 458.008 598.032 458.008Z" fill="black"/>
<path d="M791.577 440.451C791.386 440.451 791.194 440.375 791.041 440.222C790.812 439.992 790.735 439.61 790.888 439.304L809.248 403.425C809.822 402.316 810.549 401.36 811.314 400.518C816.019 395.622 823.783 395.469 828.679 400.136L829.444 400.862C830.362 401.742 831.127 402.698 831.663 403.693C833.269 406.523 833.69 409.851 832.81 413.026C831.931 416.201 829.865 418.84 826.996 420.446L791.921 440.298C791.845 440.413 791.692 440.451 791.577 440.451ZM820.226 398.3C817.396 398.3 814.565 399.409 812.461 401.589C811.773 402.316 811.161 403.196 810.625 404.152L793.451 437.735L826.308 419.146C828.794 417.731 830.63 415.436 831.395 412.643C832.16 409.889 831.816 406.982 830.401 404.458C829.942 403.616 829.291 402.775 828.488 402.01L827.723 401.283C825.581 399.294 822.904 398.3 820.226 398.3Z" fill="black"/>
<path d="M793.413 456.593C793.221 456.593 793.068 456.516 792.915 456.401C792.609 456.134 792.571 455.637 792.839 455.331L799.915 447.26C800.183 446.954 800.68 446.916 800.986 447.183C801.292 447.451 801.33 447.948 801.063 448.254L793.986 456.325C793.833 456.516 793.642 456.593 793.413 456.593Z" fill="black"/>
<path d="M635.746 457.396C635.555 457.396 635.364 457.319 635.249 457.205L627.714 450.358C627.408 450.09 627.37 449.593 627.676 449.287C627.943 448.981 628.441 448.943 628.747 449.249L636.282 456.095C636.588 456.363 636.626 456.86 636.32 457.166C636.167 457.319 635.938 457.396 635.746 457.396Z" fill="black"/>
<path d="M783.009 447.336C782.779 447.336 782.55 447.221 782.397 447.03C782.129 446.686 782.205 446.227 782.511 445.959L791.041 439.265C791.232 439.112 791.5 439.074 791.768 439.151C798.079 441.178 803.625 440.183 808.98 439.227C815.712 438.003 822.062 436.894 828.373 442.517C828.679 442.784 828.717 443.282 828.45 443.588C828.182 443.894 827.685 443.932 827.379 443.664C821.641 438.539 815.904 439.571 809.286 440.757C804.123 441.675 798.27 442.746 791.73 440.757L783.506 447.183C783.353 447.298 783.162 447.336 783.009 447.336Z" fill="black"/>
<path d="M684.477 211.984C692.483 211.984 698.974 205.494 698.974 197.487C698.974 189.481 692.483 182.99 684.477 182.99C676.47 182.99 669.98 189.481 669.98 197.487C669.98 205.494 676.47 211.984 684.477 211.984Z" fill="black"/>
<path d="M692.739 250.961C688.111 250.961 684.324 247.174 684.324 242.546C684.324 237.917 688.111 234.131 692.739 234.131C697.367 234.131 701.154 237.917 701.154 242.546C701.154 247.174 697.367 250.961 692.739 250.961Z" fill="white"/>
<path d="M692.739 234.858C696.946 234.858 700.389 238.3 700.389 242.508C700.389 246.715 696.946 250.158 692.739 250.158C688.531 250.158 685.089 246.715 685.089 242.508C685.089 238.3 688.531 234.858 692.739 234.858ZM692.739 233.328C687.651 233.328 683.559 237.459 683.559 242.508C683.559 247.557 687.69 251.688 692.739 251.688C697.788 251.688 701.919 247.557 701.919 242.508C701.919 237.459 697.826 233.328 692.739 233.328Z" fill="black"/>
<path d="M694.154 244.42C694.039 244.42 693.963 244.42 693.848 244.343L687.804 241.857C687.422 241.704 687.231 241.245 687.384 240.863C687.537 240.48 687.996 240.289 688.378 240.442L694.422 242.928C694.804 243.081 694.995 243.54 694.842 243.923C694.728 244.229 694.46 244.42 694.154 244.42Z" fill="black"/>
<path d="M676.176 252.835C669.98 252.835 663.478 246.792 659.997 237.803C655.407 225.792 656.325 214.356 662.177 211.181C664.663 209.842 667.417 209.154 670.401 209.154C677.936 209.154 684.362 213.514 684.439 213.552C688.684 216.574 690.865 219.864 691.438 224.186C692.089 229.044 690.712 235.202 687.154 243.655C684.668 249.584 680.766 252.835 676.176 252.835Z" fill="white"/>
<path d="M670.439 208.388V209.918C677.592 209.918 683.788 214.011 684.056 214.164C691.056 219.137 693.924 225.754 686.504 243.311C684.132 248.933 680.461 252.07 676.215 252.07C670.324 252.07 664.09 246.218 660.762 237.497C658.505 231.683 657.549 225.792 658.008 220.934C658.429 216.421 660.073 213.208 662.598 211.831C664.969 210.53 667.609 209.88 670.477 209.88L670.439 208.388ZM670.439 208.388C667.647 208.388 664.702 208.962 661.833 210.53C655.713 213.858 654.489 225.486 659.308 238.109C663.057 247.824 669.827 253.638 676.177 253.638C680.728 253.638 685.051 250.655 687.881 243.961C695.225 226.557 693.083 218.754 684.898 212.94C684.898 212.902 678.28 208.388 670.439 208.388Z" fill="black"/>
<path d="M684.898 212.902C692.012 217.951 694.537 224.492 690.291 237.535C677.63 232.486 678.089 215.006 678.089 215.006C667.532 223.191 656.325 222.694 656.325 222.694C656.478 216.88 658.39 212.405 661.795 210.531C672.734 204.602 684.898 212.902 684.898 212.902Z" fill="black"/>
<path d="M667.264 236.54C667.149 236.54 667.073 236.502 666.958 236.464C666.231 236.158 665.543 235.546 665.122 234.819C664.472 233.71 664.395 231.874 664.701 227.743C664.74 227.322 665.122 227.016 665.543 227.054C665.964 227.093 666.27 227.475 666.231 227.896C665.925 231.491 666.002 233.327 666.423 234.054C666.69 234.513 667.111 234.896 667.57 235.087C667.953 235.24 668.144 235.699 667.953 236.081C667.838 236.387 667.57 236.54 667.264 236.54Z" fill="black"/>
<path d="M671.739 230.688C671.319 230.688 670.974 230.382 670.974 229.961L670.936 229.005C670.936 228.584 671.242 228.24 671.663 228.202C672.084 228.202 672.428 228.508 672.466 228.929L672.504 229.885C672.504 230.306 672.198 230.688 671.739 230.688C671.739 230.688 671.778 230.688 671.739 230.688Z" fill="black"/>
<path d="M661.221 228.776C660.8 228.776 660.456 228.47 660.456 228.049L660.418 227.131C660.418 226.71 660.724 226.366 661.144 226.328C661.565 226.289 661.909 226.634 661.948 227.054L661.986 227.972C661.986 228.393 661.68 228.776 661.221 228.776C661.221 228.776 661.259 228.776 661.221 228.776Z" fill="black"/>
<path d="M670.401 241.245C670.286 241.245 670.171 241.245 670.056 241.207C669.98 241.207 669.903 241.207 669.827 241.207C669.406 241.207 669.062 240.863 669.062 240.442C669.062 240.021 669.406 239.677 669.827 239.677C669.942 239.677 670.056 239.677 670.171 239.715C670.248 239.715 670.324 239.715 670.401 239.715C671.701 239.715 672.734 238.682 672.734 237.42C672.734 236.999 673.078 236.655 673.499 236.655C673.92 236.655 674.264 236.999 674.264 237.42C674.264 239.524 672.543 241.245 670.401 241.245Z" fill="black"/>
<path d="M719.858 270.124C719.667 270.124 719.475 270.047 719.322 269.894L703.372 254.671C703.066 254.365 703.066 253.906 703.334 253.6C703.64 253.294 704.099 253.294 704.405 253.562L720.355 268.785C720.661 269.091 720.661 269.55 720.393 269.856C720.24 270.047 720.049 270.124 719.858 270.124Z" fill="black"/>
<path d="M723.951 256.545C723.836 256.545 723.721 256.507 723.606 256.469L700.809 244.497C700.427 244.305 700.274 243.846 700.503 243.464C700.733 243.081 701.154 242.928 701.536 243.158L724.333 255.13C724.716 255.321 724.869 255.78 724.639 256.163C724.486 256.392 724.218 256.545 723.951 256.545Z" fill="black"/>
<path d="M689.334 213.514C686.848 213.514 683.979 212.979 680.499 211.563C680.116 211.41 679.925 210.951 680.078 210.569C680.231 210.186 680.69 209.995 681.072 210.148C688.455 213.208 692.7 211.869 697.137 210.416C700.58 209.307 704.176 208.121 709.301 208.886C709.722 208.962 710.028 209.345 709.951 209.766C709.875 210.186 709.492 210.492 709.071 210.416C704.29 209.727 700.886 210.837 697.596 211.908C695.11 212.673 692.509 213.514 689.334 213.514Z" fill="black"/>
<path d="M718.328 225.065C718.175 225.065 717.984 225.027 717.831 224.912C712.17 220.284 707.58 220.169 702.684 220.016C696.831 219.863 690.214 219.634 680.996 211.716C680.69 211.448 680.652 210.951 680.919 210.645C681.187 210.339 681.684 210.301 681.99 210.569C690.788 218.18 696.87 218.333 702.722 218.525C707.847 218.678 712.705 218.831 718.787 223.765C719.131 224.033 719.169 224.53 718.902 224.836C718.787 224.951 718.557 225.065 718.328 225.065Z" fill="black"/>
<path d="M728.196 442.325C727.929 442.325 727.699 442.211 727.546 441.943C724.486 436.856 713.853 434.408 713.738 434.369C713.355 434.293 713.126 433.949 713.126 433.566C713.164 433.184 713.432 432.878 713.814 432.839C713.967 432.839 729.497 431.348 733.666 424.96C734.775 423.277 734.967 421.441 734.24 419.337C733.819 418.075 732.978 417.195 731.677 416.583C725.06 413.523 709.836 419.452 709.683 419.49C709.377 419.605 709.033 419.528 708.804 419.261C708.612 418.993 708.574 418.649 708.765 418.343C708.88 418.19 719.973 401.704 717.257 393.557C716.645 391.682 715.344 390.458 713.317 389.77C710.984 389.005 708.804 389.196 706.662 390.42C698.132 395.278 694.039 414.326 693.963 414.518C693.886 414.862 693.618 415.091 693.274 415.13C692.93 415.168 692.624 414.977 692.509 414.671C692.433 414.518 685.93 399.371 678.816 397.19C677.247 396.693 675.832 396.884 674.417 397.802C672.581 398.95 671.625 400.442 671.434 402.354C670.745 409.583 681.57 419.834 681.684 419.911C681.914 420.14 681.99 420.523 681.837 420.829C681.684 421.135 681.34 421.288 680.996 421.25C669.445 419.069 662.521 420.867 659.844 426.758C659.653 427.14 659.232 427.293 658.811 427.14C658.429 426.949 658.276 426.528 658.429 426.107C662.292 417.692 673.078 418.419 678.892 419.337C675.718 415.971 669.291 408.359 669.865 402.239C670.095 399.868 671.319 397.917 673.576 396.54C675.335 395.431 677.247 395.163 679.236 395.775C685.433 397.688 690.826 407.709 692.968 412.108C694.345 406.791 698.476 393.404 705.858 389.158C708.345 387.743 711.022 387.475 713.738 388.393C716.224 389.234 717.869 390.841 718.672 393.136C721.082 400.327 714.197 412.605 711.252 417.348C715.842 415.78 726.628 412.605 732.327 415.244C734.01 416.009 735.158 417.272 735.693 418.916C736.535 421.441 736.305 423.774 734.928 425.84C731.677 430.85 722.65 433.031 717.563 433.91C721.197 435.134 726.628 437.468 728.847 441.178C729.076 441.522 728.961 442.019 728.579 442.211C728.464 442.287 728.349 442.325 728.196 442.325Z" fill="black"/>
<path d="M648.713 420.255C648.636 420.255 648.56 420.255 648.483 420.217C648.063 420.102 647.871 419.643 647.986 419.261C650.434 411.534 634.675 404.802 634.484 404.726C634.14 404.573 633.948 404.19 634.025 403.808C634.14 403.425 634.484 403.196 634.866 403.234C635.019 403.234 649.86 405.032 655.292 399.791C656.745 398.376 657.396 396.617 657.166 394.36C656.975 392.218 656.095 390.535 654.45 389.273C649.248 385.218 638.462 386.939 638.347 386.939C638.003 386.978 637.659 386.825 637.544 386.519C637.391 386.213 637.506 385.83 637.735 385.601C637.85 385.524 648.369 376.765 649.134 368.732C649.363 366.476 648.751 364.448 647.336 362.727C645.882 360.968 643.932 360.662 642.516 360.7C639.915 360.776 637.047 362.153 635.67 363.989C635.402 364.334 634.943 364.41 634.599 364.142C634.254 363.875 634.178 363.416 634.446 363.071C636.09 360.853 639.38 359.246 642.478 359.132C644.964 359.055 647.068 359.973 648.522 361.733C650.205 363.76 650.931 366.17 650.664 368.847C650.052 375.426 643.74 382.12 640.527 385.142C644.199 384.836 651.199 384.797 655.369 388.049C657.319 389.579 658.467 391.644 658.696 394.207C658.926 396.884 658.161 399.141 656.363 400.862C652.232 404.84 643.702 405.185 638.653 404.993C643.549 407.671 651.467 413.141 649.401 419.605C649.325 420.064 649.057 420.255 648.713 420.255Z" fill="black"/>
<path d="M750.343 429.932C750.152 429.932 749.961 429.856 749.808 429.703C746.556 426.567 745.179 423.124 745.638 419.452C746.595 412.07 754.857 405.912 758.414 403.578C752.409 402.087 734.049 396.655 735.617 386.595C736.038 383.994 737.338 382.005 739.518 380.628C745.141 377.109 755.201 378.792 760.403 379.978C755.048 375.197 743.802 363.684 748.928 354.924C749.808 353.433 753.288 348.804 762.009 351.941C762.392 352.094 762.621 352.515 762.468 352.935C762.315 353.318 761.895 353.547 761.474 353.394C756.348 351.52 752.141 352.4 750.228 355.689C744.453 365.673 763.769 380.82 763.96 380.973C764.266 381.202 764.343 381.585 764.151 381.929C763.998 382.273 763.616 382.426 763.233 382.311C763.08 382.273 747.321 377.492 740.283 381.929C738.486 383.076 737.453 384.683 737.109 386.825C736.305 392.103 742.578 396.043 748.01 398.453C754.092 401.13 760.479 402.469 760.518 402.507C760.824 402.584 761.053 402.813 761.13 403.119C761.168 403.425 761.015 403.731 760.747 403.884C760.632 403.961 748.201 411.114 747.13 419.605C746.709 422.78 747.972 425.802 750.84 428.556C751.146 428.862 751.146 429.321 750.84 429.627C750.726 429.856 750.534 429.932 750.343 429.932Z" fill="black"/>
<path d="M722.535 304.74C722.306 304.74 722.076 304.625 721.923 304.434C721.656 304.09 721.732 303.631 722.076 303.363L730.95 296.784C731.295 296.516 731.754 296.593 732.021 296.937C732.289 297.281 732.213 297.74 731.868 298.008L722.994 304.587C722.841 304.702 722.688 304.74 722.535 304.74Z" fill="black"/>
<path d="M568.962 189.072C564.525 168.647 535.57 173.849 545.553 197.793C554.771 217.033 566.514 239.103 568.77 243.311C568.847 243.464 568.923 243.579 568.962 243.655C569 243.54 569.076 243.426 569.153 243.311C571.41 239.103 583.152 217.033 592.371 197.793C602.316 173.849 573.399 168.647 568.962 189.072Z" fill="#F696BB"/>
<path d="M609.124 177.1L588.661 147.227C586.901 144.664 589.043 141.145 592.103 141.68C593.327 141.872 594.666 142.56 596.043 144.052C596.043 144.052 600.403 139.998 605.491 146.194C605.491 146.194 610.425 143.937 615.244 150.325C619.681 156.177 621.594 159.123 621.594 159.123L609.124 177.1Z" fill="#6C79D9"/>
<path d="M613.523 170.1C613.294 170.1 613.026 169.986 612.911 169.756L595.431 144.396C595.201 144.052 595.278 143.555 595.622 143.325C595.966 143.096 596.464 143.172 596.693 143.517L614.173 168.876C614.403 169.221 614.326 169.718 613.982 169.947C613.829 170.062 613.676 170.1 613.523 170.1Z" fill="black"/>
<path d="M616.966 163.559C616.736 163.559 616.468 163.445 616.354 163.215L604.84 146.5C604.611 146.156 604.687 145.658 605.032 145.429C605.376 145.199 605.873 145.276 606.103 145.62L617.616 162.335C617.845 162.68 617.769 163.177 617.425 163.406C617.272 163.521 617.119 163.559 616.966 163.559Z" fill="black"/>
<path d="M602.698 184.482C600.633 184.482 598.759 183.258 597.955 181.346C596.923 178.859 597.879 176.067 600.25 174.767L610.31 169.335L613.638 133.38C613.791 131.697 615.244 130.779 616.507 130.779C617.042 130.779 617.845 130.932 618.496 131.697C619.299 132.615 619.758 133.916 619.834 135.56L619.873 136.325L620.638 136.287H620.714C621.556 136.287 625.763 136.631 625.763 143.21V143.784L626.337 143.937C626.528 143.975 630.965 145.314 630.659 152.582C630.583 154.15 630.506 155.68 630.43 157.133L630.353 158.51L649.287 148.336C649.861 148.03 650.511 147.877 651.161 147.877C652.232 147.877 653.227 148.298 653.953 149.024L658.046 153.117C658.429 153.5 658.696 153.959 658.773 154.494C659.079 155.948 658.123 157.363 656.669 157.669L644.085 160.155C642.172 160.538 640.681 161.953 640.183 163.827C639.992 164.554 639.801 165.357 639.61 166.237C638.5 171.248 636.97 178.171 630.009 181.958C627.599 183.296 624.616 183.947 621.173 183.947C618.075 183.947 615.283 183.411 613.447 182.952C612.605 182.723 611.764 182.646 610.884 182.646C609.851 182.646 608.857 182.799 607.862 183.105L604.19 184.214C603.731 184.406 603.234 184.482 602.698 184.482Z" fill="white"/>
<path d="M616.545 131.582C616.927 131.582 617.501 131.697 617.96 132.233C618.649 133.036 619.031 134.183 619.108 135.637L619.146 137.167L620.676 137.09H620.714C620.905 137.09 622.015 137.129 623.009 137.855C624.31 138.812 624.998 140.648 624.998 143.21V144.396L626.146 144.702C626.184 144.702 630.2 145.85 629.894 152.582C629.818 154.15 629.741 155.68 629.665 157.133L629.512 159.849L631.921 158.549L649.631 149.024C650.09 148.757 650.626 148.642 651.123 148.642C651.964 148.642 652.768 148.986 653.38 149.56L657.472 153.653C657.74 153.92 657.931 154.265 658.008 154.647C658.123 155.144 658.008 155.68 657.702 156.101C657.396 156.521 656.975 156.827 656.478 156.904L643.894 159.39C641.713 159.811 639.992 161.456 639.38 163.598C639.189 164.324 638.998 165.166 638.806 166.046C637.735 170.942 636.244 177.635 629.588 181.269C627.255 182.531 624.424 183.182 621.135 183.182C618.151 183.182 615.359 182.646 613.6 182.187C612.682 181.958 611.764 181.843 610.846 181.843C609.736 181.843 608.665 181.996 607.594 182.34L603.922 183.449C603.502 183.564 603.081 183.641 602.66 183.641C600.901 183.641 599.332 182.608 598.606 180.963C597.726 178.859 598.567 176.45 600.556 175.379L610.272 170.138L610.999 169.756L611.075 168.953L614.365 133.418C614.556 132.233 615.627 131.582 616.545 131.582ZM616.545 130.052C614.824 130.052 613.102 131.315 612.911 133.342L609.622 168.876L599.906 174.116C597.229 175.57 596.081 178.821 597.267 181.652C598.223 183.87 600.403 185.247 602.698 185.247C603.272 185.247 603.846 185.171 604.42 184.979L608.092 183.87C609.01 183.602 609.966 183.449 610.884 183.449C611.687 183.449 612.49 183.564 613.255 183.755C615.168 184.253 618.037 184.788 621.173 184.788C624.195 184.788 627.484 184.291 630.353 182.684C638.845 178.018 639.61 168.838 640.872 164.095C641.293 162.527 642.593 161.303 644.2 160.997L656.784 158.51C658.658 158.128 659.882 156.33 659.5 154.456C659.385 153.767 659.041 153.155 658.543 152.696L654.451 148.604C653.533 147.686 652.347 147.227 651.123 147.227C650.358 147.227 649.593 147.418 648.904 147.8L631.195 157.325C631.271 156.024 631.348 154.494 631.424 152.735C631.768 144.702 626.528 143.325 626.528 143.325C626.528 135.943 621.517 135.637 620.714 135.637C620.638 135.637 620.599 135.637 620.599 135.637C620.485 133.61 619.911 132.233 619.108 131.315C618.419 130.435 617.463 130.052 616.545 130.052Z" fill="black"/>
<path d="M618.113 158.969C618.075 158.969 618.075 158.969 618.037 158.969C617.616 158.931 617.31 158.549 617.348 158.128L619.222 136.019C619.26 135.599 619.643 135.293 620.064 135.331C620.484 135.369 620.79 135.752 620.752 136.172L618.878 158.281C618.84 158.663 618.496 158.969 618.113 158.969Z" fill="black"/>
<path d="M624.769 155.948C624.73 155.948 624.73 155.948 624.692 155.948C624.271 155.909 623.965 155.527 624.004 155.106L625.036 143.478C625.075 143.057 625.457 142.751 625.878 142.79C626.299 142.828 626.605 143.21 626.566 143.631L625.534 155.259C625.495 155.642 625.151 155.948 624.769 155.948Z" fill="black"/>
<path d="M594.475 187.963C594.322 187.963 594.207 187.925 594.054 187.848C593.71 187.619 593.595 187.16 593.824 186.777L595.928 183.526L590.803 184.788C590.382 184.903 589.961 184.635 589.885 184.215C589.77 183.794 590.038 183.373 590.458 183.297L597.458 181.575C597.764 181.499 598.07 181.614 598.261 181.881C598.452 182.149 598.452 182.493 598.299 182.723L595.163 187.581C594.972 187.848 594.742 187.963 594.475 187.963Z" fill="black"/>
<path d="M602.737 179.127C602.431 179.127 602.163 178.936 602.01 178.63L601.78 178.056C601.627 177.674 601.819 177.215 602.201 177.062C602.584 176.909 603.043 177.1 603.196 177.482L603.425 178.056C603.578 178.439 603.387 178.898 603.004 179.051C602.928 179.127 602.813 179.127 602.737 179.127Z" fill="black"/>
<path d="M629.894 166.199H629.856C629.435 166.16 629.129 165.816 629.129 165.395L629.626 158.013C629.665 157.593 630.009 157.286 630.43 157.286C630.85 157.325 631.156 157.669 631.156 158.09L630.659 165.472C630.621 165.893 630.277 166.199 629.894 166.199Z" fill="black"/>
<path d="M649.248 154.15C648.942 154.15 648.637 153.959 648.522 153.653C648.369 153.27 648.56 152.811 648.981 152.658L655.407 150.21C655.789 150.057 656.248 150.248 656.401 150.669C656.554 151.052 656.363 151.511 655.942 151.664L649.516 154.112C649.44 154.15 649.325 154.15 649.248 154.15Z" fill="black"/>
<path d="M528.799 177.1L549.263 147.227C551.023 144.664 548.881 141.145 545.821 141.68C544.597 141.872 543.258 142.56 541.881 144.052C541.881 144.052 537.52 139.998 532.433 146.194C532.433 146.194 527.499 143.937 522.679 150.325C518.242 156.177 516.33 159.123 516.33 159.123L528.799 177.1Z" fill="#6C79D9"/>
<path d="M524.401 170.1C524.248 170.1 524.095 170.062 523.98 169.947C523.636 169.718 523.559 169.221 523.789 168.876L541.231 143.517C541.46 143.172 541.957 143.096 542.301 143.325C542.646 143.555 542.722 144.052 542.493 144.396L525.013 169.756C524.898 169.986 524.63 170.1 524.401 170.1Z" fill="black"/>
<path d="M520.92 163.559C520.767 163.559 520.614 163.521 520.499 163.406C520.155 163.177 520.078 162.68 520.308 162.335L531.821 145.62C532.051 145.276 532.548 145.199 532.892 145.429C533.236 145.658 533.313 146.156 533.083 146.5L521.57 163.215C521.417 163.445 521.149 163.559 520.92 163.559Z" fill="black"/>
<path d="M535.187 184.482C534.69 184.482 534.193 184.406 533.695 184.253L530.023 183.143C529.029 182.837 528.034 182.684 527.002 182.684C526.122 182.684 525.28 182.799 524.439 182.99C522.603 183.449 519.772 183.985 516.712 183.985C513.27 183.985 510.325 183.296 507.877 181.996C500.953 178.209 499.423 171.286 498.276 166.275C498.085 165.395 497.893 164.592 497.702 163.865C497.205 161.991 495.713 160.576 493.801 160.193L481.216 157.707C479.763 157.401 478.807 155.986 479.113 154.532C479.227 153.997 479.457 153.538 479.839 153.155L483.932 149.063C484.697 148.336 485.653 147.915 486.724 147.915C487.375 147.915 488.025 148.068 488.599 148.374L507.532 158.549L507.456 157.172C507.379 155.718 507.303 154.188 507.226 152.62C506.92 145.353 511.357 144.014 511.549 143.975L512.122 143.823V143.249C512.122 136.67 516.33 136.326 517.171 136.326H517.248L518.013 136.364L518.051 135.599C518.128 133.954 518.587 132.654 519.39 131.736C520.04 130.971 520.843 130.818 521.379 130.818C522.641 130.818 524.095 131.736 524.248 133.419L527.575 169.373L537.635 174.805C540.007 176.067 541.001 178.898 539.93 181.346C539.127 183.22 537.253 184.482 535.187 184.482Z" fill="white"/>
<path d="M521.341 131.582C522.259 131.582 523.33 132.233 523.444 133.457L526.734 168.991L526.81 169.794L527.537 170.177L537.253 175.417C539.28 176.488 540.121 178.898 539.203 181.001C538.515 182.608 536.908 183.679 535.149 183.679C534.728 183.679 534.307 183.602 533.887 183.488L530.215 182.378C529.144 182.072 528.073 181.881 526.963 181.881C526.045 181.881 525.127 181.996 524.209 182.225C522.412 182.684 519.658 183.22 516.674 183.22C513.385 183.22 510.516 182.57 508.221 181.307C501.604 177.674 500.112 170.98 499.003 166.084C498.811 165.204 498.62 164.363 498.429 163.636C497.855 161.456 496.134 159.849 493.915 159.428L481.331 156.942C480.834 156.827 480.375 156.56 480.107 156.139C479.839 155.718 479.725 155.183 479.801 154.685C479.878 154.303 480.069 153.959 480.337 153.691L484.429 149.598C485.041 148.986 485.845 148.68 486.686 148.68C487.222 148.68 487.719 148.795 488.178 149.063L505.888 158.587L508.297 159.887L508.144 157.172C508.068 155.718 507.991 154.188 507.915 152.62C507.8 149.789 508.412 147.609 509.713 146.117C510.631 145.085 511.549 144.779 511.702 144.74L512.811 144.473V143.249C512.811 137.549 516.1 137.09 517.095 137.09L518.625 137.167L518.701 135.637C518.778 134.183 519.16 133.036 519.849 132.233C520.423 131.697 520.958 131.582 521.341 131.582ZM521.341 130.052C520.423 130.052 519.466 130.435 518.778 131.238C517.975 132.194 517.363 133.571 517.286 135.56C517.286 135.56 517.248 135.56 517.171 135.56C516.368 135.56 511.357 135.866 511.357 143.249C511.357 143.249 506.117 144.626 506.461 152.658C506.538 154.418 506.614 155.909 506.691 157.248L488.981 147.724C488.293 147.341 487.528 147.15 486.763 147.15C485.539 147.15 484.353 147.609 483.435 148.527L479.304 152.62C478.807 153.117 478.501 153.729 478.348 154.379C477.965 156.254 479.189 158.051 481.063 158.434L493.648 160.92C495.254 161.226 496.555 162.45 496.975 164.018C498.276 168.761 499.003 177.98 507.494 182.608C510.401 184.176 513.652 184.712 516.674 184.712C519.811 184.712 522.679 184.176 524.592 183.679C525.357 183.488 526.16 183.373 526.963 183.373C527.92 183.373 528.838 183.526 529.756 183.794L533.428 184.903C534.001 185.094 534.575 185.171 535.149 185.171C537.482 185.171 539.662 183.794 540.58 181.575C541.766 178.745 540.619 175.493 537.941 174.04L528.226 168.8L524.936 133.265C524.783 131.315 523.062 130.052 521.341 130.052Z" fill="black"/>
<path d="M519.772 158.969C519.39 158.969 519.046 158.663 519.007 158.281L517.171 136.172C517.133 135.752 517.439 135.369 517.86 135.331C518.281 135.293 518.663 135.599 518.701 136.019L520.537 158.128C520.576 158.549 520.27 158.931 519.849 158.969C519.811 158.969 519.811 158.969 519.772 158.969Z" fill="black"/>
<path d="M513.155 155.948C512.773 155.948 512.428 155.642 512.39 155.259L511.319 143.631C511.281 143.21 511.587 142.828 512.008 142.79C512.428 142.751 512.811 143.057 512.849 143.478L513.92 155.106C513.958 155.527 513.652 155.909 513.232 155.948C513.193 155.948 513.193 155.948 513.155 155.948Z" fill="black"/>
<path d="M543.449 187.963C543.181 187.963 542.952 187.848 542.799 187.619L539.662 182.761C539.509 182.493 539.509 182.149 539.701 181.919C539.892 181.652 540.198 181.537 540.504 181.613L547.465 183.335C547.886 183.449 548.116 183.832 548.039 184.253C547.963 184.673 547.542 184.903 547.121 184.826L542.034 183.564L544.138 186.815C544.367 187.16 544.252 187.657 543.908 187.886C543.717 187.925 543.602 187.963 543.449 187.963Z" fill="black"/>
<path d="M535.187 179.127C535.111 179.127 534.996 179.127 534.919 179.089C534.537 178.936 534.346 178.477 534.499 178.094L534.728 177.521C534.881 177.138 535.34 176.947 535.723 177.1C536.105 177.253 536.296 177.712 536.143 178.094L535.914 178.668C535.761 178.936 535.493 179.127 535.187 179.127Z" fill="black"/>
<path d="M507.991 166.199C507.609 166.199 507.264 165.893 507.226 165.472L506.729 158.09C506.691 157.669 507.035 157.286 507.456 157.286C507.876 157.248 508.259 157.592 508.259 158.013L508.756 165.395C508.794 165.816 508.45 166.199 508.029 166.199H507.991Z" fill="black"/>
<path d="M488.675 154.15C488.599 154.15 488.484 154.15 488.407 154.112L481.981 151.664C481.599 151.511 481.369 151.09 481.522 150.669C481.675 150.287 482.096 150.057 482.517 150.21L488.943 152.658C489.325 152.811 489.555 153.232 489.402 153.653C489.287 153.959 488.981 154.15 488.675 154.15Z" fill="black"/>
<path d="M536.469 83.8219C535.834 83.8219 535.32 84.3361 535.32 84.9703C535.32 85.6046 535.834 86.1188 536.469 86.1188C538.368 86.1188 539.914 87.6643 539.914 89.5641C539.914 90.1984 540.428 90.7125 541.062 90.7125C541.696 90.7125 542.211 90.1984 542.211 89.5641C542.211 86.3978 539.635 83.8219 536.469 83.8219Z" fill="white"/>
<path d="M555.992 70.8445C555.992 66.4118 552.386 62.8055 547.953 62.8055C543.52 62.8055 539.914 66.4118 539.914 70.8445C539.914 75.2773 543.52 78.8836 547.953 78.8836C552.386 78.8836 555.992 75.2773 555.992 70.8445ZM547.953 76.5867C544.787 76.5867 542.211 74.0108 542.211 70.8445C542.211 67.6783 544.787 65.1024 547.953 65.1024C551.119 65.1024 553.695 67.6783 553.695 70.8445C553.695 74.0108 551.119 76.5867 547.953 76.5867Z" fill="white"/>
<path d="M547.953 67.3992C547.319 67.3992 546.805 67.9134 546.805 68.5477C546.805 69.182 547.319 69.6961 547.953 69.6961C548.586 69.6961 549.101 70.2113 549.101 70.8445C549.101 71.4788 549.616 71.993 550.25 71.993C550.884 71.993 551.398 71.4788 551.398 70.8445C551.398 68.9448 549.853 67.3992 547.953 67.3992Z" fill="white"/>
<path d="M523.836 70.8445C523.836 74.0108 526.412 76.5867 529.578 76.5867C532.744 76.5867 535.32 74.0108 535.32 70.8445C535.32 67.6783 532.744 65.1024 529.578 65.1024C526.412 65.1024 523.836 67.6783 523.836 70.8445ZM533.023 70.8445C533.023 72.7443 531.478 74.2898 529.578 74.2898C527.678 74.2898 526.133 72.7443 526.133 70.8445C526.133 68.9448 527.678 67.3992 529.578 67.3992C531.478 67.3992 533.023 68.9448 533.023 70.8445Z" fill="white"/>
<path d="M547.953 48.3351C544.787 48.3351 542.211 50.9111 542.211 54.0773C542.211 57.2436 544.787 59.8195 547.953 59.8195C551.119 59.8195 553.695 57.2436 553.695 54.0773C553.695 50.9111 551.119 48.3351 547.953 48.3351ZM547.953 57.5226C546.053 57.5226 544.508 55.9771 544.508 54.0773C544.508 52.1776 546.053 50.632 547.953 50.632C549.853 50.632 551.398 52.1776 551.398 54.0773C551.398 55.9771 549.853 57.5226 547.953 57.5226Z" fill="white"/>
<path d="M538.765 41.1C536.866 41.1 535.32 42.6456 535.32 44.5453C535.32 46.4451 536.866 47.9906 538.765 47.9906C540.665 47.9906 542.211 46.4451 542.211 44.5453C542.211 42.6456 540.665 41.1 538.765 41.1ZM538.765 45.6938C538.132 45.6938 537.617 45.1786 537.617 44.5453C537.617 43.9121 538.132 43.3969 538.765 43.3969C539.399 43.3969 539.914 43.9121 539.914 44.5453C539.914 45.1786 539.399 45.6938 538.765 45.6938Z" fill="white"/>
<path d="M533.023 58.6711C533.023 60.5708 534.569 62.1164 536.469 62.1164C538.368 62.1164 539.914 60.5708 539.914 58.6711C539.914 56.7713 538.368 55.2258 536.469 55.2258C534.569 55.2258 533.023 56.7713 533.023 58.6711ZM536.469 57.5226C537.102 57.5226 537.617 58.0378 537.617 58.6711C537.617 59.3043 537.102 59.8195 536.469 59.8195C535.835 59.8195 535.32 59.3043 535.32 58.6711C535.32 58.0378 535.835 57.5226 536.469 57.5226Z" fill="white"/>
<path d="M543.015 97.2586C543.649 97.2586 544.163 96.7444 544.163 96.1102C544.163 95.4759 543.649 94.9617 543.015 94.9617C542.38 94.9617 541.866 95.4759 541.866 96.1102C541.866 96.7444 542.38 97.2586 543.015 97.2586Z" fill="white"/>
<path d="M545.194 92.6697C545.813 92.806 546.426 92.4145 546.563 91.795C546.723 91.0666 546.804 90.316 546.804 89.5641C546.804 83.8649 542.168 79.2281 536.469 79.2281C530.769 79.2281 526.133 83.8649 526.133 89.5641C526.133 95.2633 530.769 99.9 536.469 99.9C537.221 99.9 537.971 99.8187 538.7 99.6584C539.319 99.522 539.711 98.9094 539.574 98.2898C539.438 97.6703 538.826 97.2791 538.206 97.4152C537.639 97.5399 537.055 97.6031 536.469 97.6031C532.036 97.6031 528.429 93.9968 528.429 89.5641C528.429 85.1313 532.036 81.525 536.469 81.525C540.901 81.525 544.508 85.1313 544.508 89.5641C544.508 90.1502 544.444 90.7347 544.32 91.3012C544.183 91.9207 544.575 92.5334 545.194 92.6697V92.6697Z" fill="white"/>
<path d="M583.922 89.266C581.971 89.266 580.223 88.9493 578.678 88.316C577.133 87.6827 575.891 86.7453 574.954 85.504C574.042 84.2627 573.561 82.768 573.51 81.02H580.426C580.527 82.008 580.869 82.768 581.452 83.3C582.035 83.8067 582.795 84.06 583.732 84.06C584.695 84.06 585.455 83.8447 586.012 83.414C586.569 82.958 586.848 82.3373 586.848 81.552C586.848 80.8933 586.62 80.3487 586.164 79.918C585.733 79.4873 585.189 79.1327 584.53 78.854C583.897 78.5753 582.985 78.2587 581.794 77.904C580.071 77.372 578.665 76.84 577.576 76.308C576.487 75.776 575.549 74.9907 574.764 73.952C573.979 72.9133 573.586 71.558 573.586 69.886C573.586 67.4033 574.485 65.4653 576.284 64.072C578.083 62.6533 580.426 61.944 583.314 61.944C586.253 61.944 588.621 62.6533 590.42 64.072C592.219 65.4653 593.181 67.416 593.308 69.924H586.278C586.227 69.0627 585.911 68.3913 585.328 67.91C584.745 67.4033 583.998 67.15 583.086 67.15C582.301 67.15 581.667 67.3653 581.186 67.796C580.705 68.2013 580.464 68.7967 580.464 69.582C580.464 70.4433 580.869 71.1147 581.68 71.596C582.491 72.0773 583.757 72.5967 585.48 73.154C587.203 73.7367 588.596 74.294 589.66 74.826C590.749 75.358 591.687 76.1307 592.472 77.144C593.257 78.1573 593.65 79.462 593.65 81.058C593.65 82.578 593.257 83.9587 592.472 85.2C591.712 86.4413 590.597 87.4293 589.128 88.164C587.659 88.8987 585.923 89.266 583.922 89.266ZM609.467 83.49V89H606.161C603.805 89 601.968 88.43 600.651 87.29C599.333 86.1247 598.675 84.2373 598.675 81.628V73.192H596.091V67.796H598.675V62.628H605.173V67.796H609.429V73.192H605.173V81.704C605.173 82.3373 605.325 82.7933 605.629 83.072C605.933 83.3507 606.439 83.49 607.149 83.49H609.467ZM622.738 89.304C620.661 89.304 618.786 88.8607 617.114 87.974C615.468 87.0873 614.163 85.8207 613.2 84.174C612.263 82.5273 611.794 80.602 611.794 78.398C611.794 76.2193 612.276 74.3067 613.238 72.66C614.201 70.988 615.518 69.7087 617.19 68.822C618.862 67.9353 620.737 67.492 622.814 67.492C624.892 67.492 626.766 67.9353 628.438 68.822C630.11 69.7087 631.428 70.988 632.39 72.66C633.353 74.3067 633.834 76.2193 633.834 78.398C633.834 80.5767 633.34 82.502 632.352 84.174C631.39 85.8207 630.06 87.0873 628.362 87.974C626.69 88.8607 624.816 89.304 622.738 89.304ZM622.738 83.68C623.98 83.68 625.031 83.224 625.892 82.312C626.779 81.4 627.222 80.0953 627.222 78.398C627.222 76.7007 626.792 75.396 625.93 74.484C625.094 73.572 624.056 73.116 622.814 73.116C621.548 73.116 620.496 73.572 619.66 74.484C618.824 75.3707 618.406 76.6753 618.406 78.398C618.406 80.0953 618.812 81.4 619.622 82.312C620.458 83.224 621.497 83.68 622.738 83.68ZM643.78 71.33C644.54 70.1647 645.49 69.2527 646.63 68.594C647.77 67.91 649.036 67.568 650.43 67.568V74.446H648.644C647.022 74.446 645.806 74.8007 644.996 75.51C644.185 76.194 643.78 77.41 643.78 79.158V89H637.282V67.796H643.78V71.33ZM675.196 67.796L661.896 99.07H654.904L659.768 88.278L651.142 67.796H658.4L663.302 81.058L668.166 67.796H675.196ZM684.043 70.798C684.651 69.81 685.525 69.012 686.665 68.404C687.805 67.796 689.11 67.492 690.579 67.492C692.327 67.492 693.911 67.9353 695.329 68.822C696.748 69.7087 697.863 70.9753 698.673 72.622C699.509 74.2687 699.927 76.1813 699.927 78.36C699.927 80.5387 699.509 82.464 698.673 84.136C697.863 85.7827 696.748 87.062 695.329 87.974C693.911 88.8607 692.327 89.304 690.579 89.304C689.085 89.304 687.78 89.0127 686.665 88.43C685.551 87.822 684.677 87.024 684.043 86.036V89H677.545V60.88H684.043V70.798ZM693.315 78.36C693.315 76.7387 692.859 75.472 691.947 74.56C691.061 73.6227 689.959 73.154 688.641 73.154C687.349 73.154 686.247 73.6227 685.335 74.56C684.449 75.4973 684.005 76.7767 684.005 78.398C684.005 80.0193 684.449 81.2987 685.335 82.236C686.247 83.1733 687.349 83.642 688.641 83.642C689.933 83.642 691.035 83.1733 691.947 82.236C692.859 81.2733 693.315 79.9813 693.315 78.36ZM724.274 67.796V89H717.776V86.112C717.118 87.0493 716.218 87.8093 715.078 88.392C713.964 88.9493 712.722 89.228 711.354 89.228C709.733 89.228 708.302 88.8733 707.06 88.164C705.819 87.4293 704.856 86.378 704.172 85.01C703.488 83.642 703.146 82.0333 703.146 80.184V67.796H709.606V79.31C709.606 80.7287 709.974 81.8307 710.708 82.616C711.443 83.4013 712.431 83.794 713.672 83.794C714.939 83.794 715.94 83.4013 716.674 82.616C717.409 81.8307 717.776 80.7287 717.776 79.31V67.796H724.274ZM735.44 70.798C736.048 69.81 736.922 69.012 738.062 68.404C739.202 67.796 740.506 67.492 741.976 67.492C743.724 67.492 745.307 67.9353 746.726 68.822C748.144 69.7087 749.259 70.9753 750.07 72.622C750.906 74.2687 751.324 76.1813 751.324 78.36C751.324 80.5387 750.906 82.464 750.07 84.136C749.259 85.7827 748.144 87.062 746.726 87.974C745.307 88.8607 743.724 89.304 741.976 89.304C740.481 89.304 739.176 89.0127 738.062 88.43C736.947 87.822 736.073 87.024 735.44 86.036V89H728.942V60.88H735.44V70.798ZM744.712 78.36C744.712 76.7387 744.256 75.472 743.344 74.56C742.457 73.6227 741.355 73.154 740.038 73.154C738.746 73.154 737.644 73.6227 736.732 74.56C735.845 75.4973 735.402 76.7767 735.402 78.398C735.402 80.0193 735.845 81.2987 736.732 82.236C737.644 83.1733 738.746 83.642 740.038 83.642C741.33 83.642 742.432 83.1733 743.344 82.236C744.256 81.2733 744.712 79.9813 744.712 78.36ZM761.231 70.798C761.839 69.81 762.713 69.012 763.853 68.404C764.993 67.796 766.297 67.492 767.767 67.492C769.515 67.492 771.098 67.9353 772.517 68.822C773.935 69.7087 775.05 70.9753 775.861 72.622C776.697 74.2687 777.115 76.1813 777.115 78.36C777.115 80.5387 776.697 82.464 775.861 84.136C775.05 85.7827 773.935 87.062 772.517 87.974C771.098 88.8607 769.515 89.304 767.767 89.304C766.272 89.304 764.967 89.0127 763.853 88.43C762.738 87.822 761.864 87.024 761.231 86.036V89H754.733V60.88H761.231V70.798ZM770.503 78.36C770.503 76.7387 770.047 75.472 769.135 74.56C768.248 73.6227 767.146 73.154 765.829 73.154C764.537 73.154 763.435 73.6227 762.523 74.56C761.636 75.4973 761.193 76.7767 761.193 78.398C761.193 80.0193 761.636 81.2987 762.523 82.236C763.435 83.1733 764.537 83.642 765.829 83.642C767.121 83.642 768.223 83.1733 769.135 82.236C770.047 81.2733 770.503 79.9813 770.503 78.36ZM787.022 60.88V89H780.524V60.88H787.022ZM811.719 78.056C811.719 78.664 811.681 79.2973 811.605 79.956H796.899C797 81.2733 797.418 82.2867 798.153 82.996C798.913 83.68 799.837 84.022 800.927 84.022C802.548 84.022 803.675 83.338 804.309 81.97H811.225C810.87 83.3633 810.224 84.6173 809.287 85.732C808.375 86.8467 807.222 87.7207 805.829 88.354C804.435 88.9873 802.877 89.304 801.155 89.304C799.077 89.304 797.228 88.8607 795.607 87.974C793.985 87.0873 792.719 85.8207 791.807 84.174C790.895 82.5273 790.439 80.602 790.439 78.398C790.439 76.194 790.882 74.2687 791.769 72.622C792.681 70.9753 793.947 69.7087 795.569 68.822C797.19 67.9353 799.052 67.492 801.155 67.492C803.207 67.492 805.031 67.9227 806.627 68.784C808.223 69.6453 809.464 70.874 810.351 72.47C811.263 74.066 811.719 75.928 811.719 78.056ZM805.069 76.346C805.069 75.2313 804.689 74.3447 803.929 73.686C803.169 73.0273 802.219 72.698 801.079 72.698C799.989 72.698 799.065 73.0147 798.305 73.648C797.57 74.2813 797.114 75.1807 796.937 76.346H805.069Z" fill="white"/>
</g>
<defs>
<clipPath id="clip0_1_8">
<rect width="1334" height="463" fill="white"/>
</clipPath>
</defs>
</svg>
