<svg width="1340" height="463" viewBox="0 0 1340 463" fill="none" xmlns="http://www.w3.org/2000/svg">
<g clip-path="url(#clip0_5_15)">
<rect width="1340" height="463" fill="#81EAE5"/>
<path d="M335.976 299.433L374.077 267.193L410.442 311.003L361.871 330.633L335.976 299.433Z" fill="#F696BB"/>
<path d="M396.448 313.733C414.134 313.733 428.471 301.569 428.471 286.563C428.471 271.558 414.134 259.393 396.448 259.393C378.762 259.393 364.424 271.558 364.424 286.563C364.424 301.569 378.762 313.733 396.448 313.733Z" fill="#F9494B"/>
<path d="M389.655 313.127C381.79 311.697 374.894 307.797 370.298 302.25C365.65 296.66 363.658 289.857 364.731 283.097V283.053H364.782C367.897 281.71 371.217 281.017 374.69 281.017C383.015 281.017 390.472 284.917 394.252 291.2C398.593 298.48 396.754 307.493 389.757 313.127L389.706 313.17L389.655 313.127Z" fill="black"/>
<path d="M402.577 314.903C402.219 314.903 401.862 314.73 401.657 314.427C401.402 313.993 401.606 313.473 402.066 313.257L429.697 300.82C437.512 297.31 443.283 291.417 445.888 284.223C448.493 277.03 447.675 269.403 443.487 262.773C442.874 261.777 442.159 260.78 441.291 259.74C436.184 253.587 428.574 249.513 419.84 248.213C411.106 246.913 402.321 248.603 395.069 252.937C393.996 253.587 392.924 254.28 391.8 255.147L368.715 273.043C368.306 273.347 367.642 273.347 367.284 273C366.927 272.653 366.927 272.09 367.335 271.787L390.421 253.89C391.647 252.98 392.77 252.2 393.894 251.507C401.555 246.913 410.902 245.137 420.197 246.523C429.493 247.91 437.563 252.243 442.976 258.743C443.896 259.87 444.662 260.91 445.275 261.95C449.667 269.013 450.587 277.073 447.777 284.7C445.019 292.327 438.891 298.567 430.565 302.337L402.934 314.773C402.883 314.86 402.73 314.903 402.577 314.903Z" fill="black"/>
<path d="M521.12 431.86C510.139 431.86 498.188 426.92 498.034 426.877L497.932 426.833L497.983 426.747C502.427 421.547 506.411 416.043 509.833 410.323L509.884 410.237L509.986 410.28C510.139 410.323 524.389 408.503 531.488 415.74L534.552 424.277L533.429 427.743C531.59 431.47 525.512 431.86 521.12 431.86Z" fill="black"/>
<path d="M710.656 376.263C710.554 376.177 699.063 367.683 689.614 362.873L689.563 362.83V362.787C689.563 362.657 691.095 350.09 698.705 343.633C701.872 340.947 704.528 340.123 706.622 340.123C708.256 340.123 709.788 340.73 709.839 340.773C721.229 352.863 710.912 376.003 710.81 376.22L710.759 376.35L710.656 376.263Z" fill="black"/>
<path d="M620.868 281.623C618.416 275.947 615.045 270.573 610.96 265.677L610.908 265.59L611.011 265.547C611.164 265.503 624.647 258.31 636.497 257.92C637.11 257.92 637.722 257.877 638.335 257.877C648.703 257.877 651.819 263.423 651.921 263.553C652.381 264.767 652.176 266.11 651.257 267.453C647.069 273.823 629.244 279.977 621.021 281.71H620.919L620.868 281.623Z" fill="black"/>
<path d="M393.383 409.933L393.435 409.89C401.198 403.563 409.727 403.347 418.716 403.13C423.824 403 429.084 402.87 434.651 401.743C438.942 400.877 444.151 396.543 450.689 388.483L450.74 388.397L450.842 388.483C450.893 388.527 457.431 394.42 471.578 399.75C476.532 401.613 483.121 403.043 489.454 404.43C497.524 406.207 505.134 407.853 509.935 410.323L510.037 410.367L509.986 410.453C502.325 423.193 492.212 434.633 479.903 444.427C465.296 456.127 451.863 462.453 451.71 462.54L451.659 462.583L393.383 409.933Z" fill="#6C79D9"/>
<path d="M509.833 410.367C505.134 408.98 499.005 407.767 492.467 406.51C483.683 404.777 474.591 403 468.258 400.66C454.008 395.33 450.791 388.613 450.791 388.527V388.483L450.842 388.44C452.374 386.533 454.008 384.41 455.694 382.113C463.713 371.02 472.191 356.85 479.648 344.37C484.04 337.003 488.228 330.027 491.752 324.523C495.481 318.803 507.534 301.123 527.606 271.917L527.658 271.873L586.24 267.15V267.237C592.062 289.857 582.664 302.207 568.466 320.97C566.321 323.83 564.073 326.733 561.775 329.897C544.257 353.817 540.937 382.46 538.485 403.347C537.208 414.223 536.187 423.15 533.429 427.743C534.297 421.33 523.061 414.05 509.833 410.367Z" fill="#FF6371"/>
<path d="M450.076 409.153C449.769 409.153 449.463 409.023 449.259 408.807L440.218 398.233C439.912 397.843 440.014 397.323 440.423 397.02C440.882 396.76 441.495 396.803 441.853 397.193L450.893 407.767C451.199 408.157 451.097 408.677 450.689 408.98C450.484 409.11 450.28 409.153 450.076 409.153Z" fill="black"/>
<path d="M433.783 414.873C433.272 414.873 432.813 414.527 432.761 414.093L431.331 401.483C431.28 401.007 431.689 400.573 432.251 400.53C432.813 400.487 433.323 400.833 433.374 401.31L434.804 413.92C434.856 414.397 434.447 414.83 433.885 414.873C433.834 414.873 433.834 414.873 433.783 414.873Z" fill="black"/>
<path d="M479.546 445.423C479.239 445.423 478.984 445.337 478.78 445.12C472.549 438.75 463.764 434.72 454.06 433.767C444.356 432.857 434.703 435.11 426.99 440.18C426.531 440.483 425.918 440.397 425.56 440.007C425.203 439.617 425.305 439.097 425.764 438.793C433.936 433.463 444.049 431.08 454.315 432.033C464.581 433.03 473.825 437.277 480.414 443.993C480.771 444.383 480.72 444.903 480.261 445.207C480.005 445.38 479.801 445.423 479.546 445.423Z" fill="black"/>
<path d="M701.259 462.453C701.157 462.41 693.394 459.507 690.023 451.013C689.154 448.803 688.542 446.073 687.775 442.867C685.732 433.983 682.974 421.85 672.3 412.837L668.418 407.897L681.391 358.54L689.665 362.657C694.824 365.213 699.778 368.16 704.375 371.41C719.288 381.983 730.371 391.777 741.455 404.127L741.506 404.17L701.31 462.41L701.259 462.453Z" fill="#6C79D9"/>
<path d="M672.3 412.837C664.945 406.597 653.198 399.403 640.736 391.82C629.193 384.8 617.293 377.52 609.07 370.977C601.205 364.737 590.836 355.593 580.571 340.297C569.743 324.177 560.447 303.723 552.275 277.723L552.224 277.637H552.326C552.786 277.55 599.059 268.19 611.062 265.547H611.113L611.164 265.59C615.25 270.53 618.621 275.903 621.072 281.58C622.707 285.35 624.137 289.25 625.516 293.063C628.836 302.293 632.309 311.827 639.408 320.06C648.091 330.113 672.249 333.97 689.972 336.527C698.552 337.74 708.563 340.167 709.839 340.773C697.786 337.003 690.533 356.633 689.665 362.743C688.899 366.73 688.184 371.15 687.316 377.867C686.447 384.67 685.426 390.39 683.485 396.153C679.501 407.897 672.504 412.837 672.453 412.88L672.402 412.923L672.3 412.837Z" fill="#FF6371"/>
<path d="M569.232 321.36C568.823 321.36 568.466 321.143 568.313 320.84C563.92 311.913 559.988 302.727 556.617 293.453C556.464 292.977 556.77 292.5 557.281 292.37C557.843 292.24 558.404 292.5 558.558 292.933C561.928 302.12 565.81 311.307 570.151 320.147C570.356 320.58 570.1 321.1 569.59 321.273C569.487 321.36 569.385 321.36 569.232 321.36Z" fill="black"/>
<path d="M513.357 359.84C512.948 359.84 512.591 359.623 512.437 359.32L499.516 334.403L479.443 346.407C478.984 346.667 478.32 346.58 478.013 346.19C477.707 345.8 477.809 345.237 478.269 344.977L499.362 332.367C499.618 332.237 499.924 332.15 500.231 332.237C500.537 332.323 500.793 332.497 500.895 332.713L512.489 355.073L513.306 331.283C513.306 331.023 513.459 330.807 513.663 330.677C513.868 330.547 514.174 330.46 514.429 330.46L540.426 332.54L518.107 320.797C517.8 320.623 517.647 320.363 517.647 320.103C517.647 319.8 517.8 319.54 518.056 319.367L543.899 303.507L517.289 306.67C516.983 306.713 516.677 306.627 516.421 306.453C516.217 306.28 516.064 306.02 516.115 305.717L519.026 282.967C519.077 282.49 519.588 282.143 520.15 282.187C520.711 282.23 521.12 282.663 521.069 283.14L518.311 304.763L547.73 301.297C548.189 301.253 548.649 301.47 548.802 301.817C548.956 302.207 548.853 302.597 548.445 302.857L520.507 320.017L545.227 333.017C545.636 333.233 545.789 333.667 545.636 334.013C545.482 334.36 545.023 334.62 544.563 334.62L515.298 332.28L514.378 358.973C514.378 359.363 514.021 359.71 513.561 359.797C513.51 359.84 513.408 359.84 513.357 359.84Z" fill="black"/>
<path d="M649.878 398.19C649.418 398.19 649.01 397.93 648.908 397.583L644.107 384.15C644.005 383.933 644.056 383.673 644.209 383.457C644.362 383.24 644.566 383.11 644.873 383.067L674.547 377.303L646.252 370.5C645.997 370.457 645.741 370.283 645.639 370.067C645.486 369.85 645.486 369.633 645.537 369.417L654.628 344.11L630.879 360.577C630.623 360.75 630.317 360.793 629.959 360.75C629.653 360.663 629.397 360.49 629.244 360.23L616.731 333.883L612.032 359.623C611.981 359.883 611.777 360.143 611.47 360.273C611.164 360.403 610.806 360.403 610.551 360.273L586.597 349.7C586.086 349.483 585.882 348.963 586.138 348.53C586.393 348.097 587.006 347.923 587.517 348.14L610.194 358.15L615.25 330.503C615.301 330.113 615.71 329.81 616.118 329.767C616.578 329.723 616.986 329.94 617.191 330.287L630.572 358.453L655.854 340.903C656.211 340.643 656.722 340.643 657.08 340.86C657.437 341.077 657.641 341.467 657.488 341.813L647.733 368.983L678.837 376.437C679.297 376.523 679.603 376.913 679.603 377.303C679.603 377.693 679.246 378.04 678.786 378.127L646.303 384.41L650.798 396.933C650.951 397.41 650.644 397.887 650.134 398.017C650.082 398.19 649.98 398.19 649.878 398.19Z" fill="black"/>
<path d="M636.957 333.58C636.65 333.58 636.293 333.45 636.139 333.19L618.417 311.48L590.632 331.327C590.275 331.587 589.764 331.587 589.406 331.37C589.049 331.153 588.845 330.763 588.998 330.373L600.234 299.867L568.823 297.353C568.364 297.31 568.006 297.05 567.904 296.66C567.802 296.27 568.006 295.923 568.415 295.707L593.952 283.227L576.229 276.51C575.718 276.293 575.463 275.817 575.718 275.383C575.974 274.95 576.536 274.733 577.046 274.95L596.608 282.36C596.965 282.49 597.17 282.793 597.221 283.097C597.221 283.443 597.067 283.747 596.71 283.877L572.194 295.88L601.664 298.22C601.971 298.263 602.226 298.393 602.43 298.61C602.635 298.827 602.635 299.087 602.532 299.347L591.96 328.077L617.957 309.53C618.161 309.357 618.468 309.313 618.774 309.313C619.081 309.357 619.336 309.487 619.489 309.66L635.782 329.637L634.965 315.597C634.914 315.12 635.373 314.73 635.935 314.687C636.497 314.643 636.957 315.033 637.008 315.51L638.029 332.583C638.029 332.973 637.774 333.32 637.314 333.45C637.161 333.58 637.059 333.58 636.957 333.58Z" fill="black"/>
<path d="M466.368 400.617C465.909 400.617 465.5 400.357 465.398 400.01C465.245 399.533 465.551 399.057 466.062 398.927L488.535 393.12L476.43 363.87C476.277 363.523 476.43 363.09 476.788 362.873C477.145 362.657 477.656 362.657 478.013 362.917L506.002 382.33L534.042 354.51C534.348 354.207 534.859 354.12 535.268 354.293C535.676 354.467 535.932 354.857 535.829 355.247L526.994 390.043L539.762 391.17C540.324 391.213 540.733 391.647 540.681 392.123C540.63 392.6 540.12 392.947 539.558 392.903L525.666 391.69C525.359 391.647 525.104 391.517 524.951 391.343C524.797 391.127 524.695 390.91 524.797 390.65L533.02 358.193L506.921 384.063C506.564 384.41 505.951 384.453 505.491 384.15L479.546 366.167L490.782 393.38C490.884 393.597 490.833 393.857 490.731 394.073C490.629 394.29 490.373 394.463 490.118 394.507L466.624 400.573C466.573 400.617 466.471 400.617 466.368 400.617Z" fill="black"/>
<path d="M526.432 419.337C525.921 419.337 525.461 419.033 525.41 418.6L523.776 407.637C523.725 407.203 524.031 406.813 524.491 406.683L537.923 403.433C538.485 403.303 539.047 403.563 539.2 404.04C539.354 404.517 539.047 404.993 538.485 405.123L525.921 408.157L527.453 418.383C527.504 418.86 527.147 419.293 526.585 419.337C526.534 419.337 526.483 419.337 526.432 419.337Z" fill="black"/>
<path d="M535.37 289.25C535.166 289.25 535.012 289.207 534.859 289.12C534.502 288.947 534.297 288.6 534.399 288.253L536.698 275.643C536.8 275.167 537.311 274.863 537.872 274.907C538.434 274.993 538.792 275.427 538.741 275.903L536.8 286.433L551.765 277.03C552.224 276.727 552.837 276.813 553.195 277.203C553.552 277.593 553.45 278.113 552.99 278.417L536.034 289.077C535.778 289.207 535.574 289.25 535.37 289.25Z" fill="black"/>
<path d="M673.321 358.757C673.27 358.757 673.168 358.757 673.117 358.757C672.709 358.67 672.402 358.41 672.3 358.063L667.55 332.887C667.448 332.41 667.857 331.977 668.418 331.89C668.98 331.803 669.491 332.15 669.593 332.627L673.934 355.55L688.797 335.92C689.103 335.53 689.716 335.4 690.227 335.66C690.687 335.92 690.84 336.44 690.533 336.873L674.19 358.367C673.985 358.627 673.679 358.757 673.321 358.757Z" fill="black"/>
<path d="M611.011 265.72C588.538 273.823 570.203 278.027 556.361 278.287H555.902C555.34 278.287 554.778 278.287 554.267 278.287C536.8 278.287 527.556 272.047 527.504 272.003L527.453 271.96L527.504 271.917C553.042 234.78 582.869 191.663 583.175 191.23V191.187L604.116 186.42L604.167 186.463C616.476 202.497 648.193 253.673 651.921 263.553C651.972 263.553 645.18 253.587 611.011 265.72Z" fill="#6C79D9"/>
<path d="M728.941 422.977C728.737 422.977 728.533 422.933 728.328 422.803C723.374 419.727 716.53 415.523 714.028 402.307C713.568 399.707 712.393 390.52 717.45 381.767C717.705 381.333 718.318 381.16 718.829 381.377C719.339 381.593 719.544 382.113 719.288 382.547C714.487 390.867 715.611 399.577 716.071 402.047C718.471 414.57 724.6 418.34 729.554 421.417C730.014 421.72 730.116 422.24 729.758 422.63C729.554 422.847 729.248 422.977 728.941 422.977Z" fill="black"/>
<path d="M680.114 422.847C679.757 422.847 679.399 422.673 679.246 422.413C678.991 421.98 679.144 421.46 679.655 421.243L692.065 415.307C692.576 415.09 693.189 415.22 693.444 415.653C693.7 416.087 693.547 416.607 693.036 416.823L680.625 422.76C680.472 422.803 680.267 422.847 680.114 422.847Z" fill="black"/>
<path d="M684.456 433.853C683.996 433.853 683.536 433.593 683.434 433.16C683.332 432.683 683.69 432.25 684.251 432.12L697.582 429.78C698.143 429.693 698.654 429.997 698.807 430.473C698.91 430.95 698.552 431.383 697.99 431.513L684.66 433.853C684.609 433.853 684.507 433.853 684.456 433.853Z" fill="black"/>
<path d="M438.124 275.253C436.03 275.253 435.469 273.217 435.366 272.827C435.264 272.437 434.856 272.133 434.396 272.133C432.404 272.09 430.974 271.57 430.106 270.703C428.982 269.577 429.033 268.06 429.084 267.757C429.135 267.367 428.88 267.02 428.42 266.89C426.786 266.327 425.764 265.547 425.407 264.55C424.794 262.86 426.122 260.953 426.377 260.563C426.531 260.347 426.582 260.043 426.479 259.783C426.377 259.523 426.122 259.35 425.815 259.263C425.407 259.177 423.977 258.743 423.568 257.573C423.109 256.317 423.67 253.803 428.88 249.253C439.044 240.327 453.753 236.947 475 232.743L492.774 231.963L498.239 257.877L477.656 262.383L475.46 262.6C470.557 263.12 466.726 263.51 464.53 263.943C454.57 265.85 450.382 268.58 445.581 271.743C444.713 272.307 443.794 272.913 442.823 273.52C440.985 274.647 439.35 275.253 438.124 275.253Z" fill="white"/>
<path d="M491.957 232.873L497.064 257.227L477.503 261.517L475.358 261.733C470.454 262.253 466.573 262.643 464.325 263.077C454.111 265.027 449.667 267.93 444.968 271.007C444.1 271.57 443.181 272.177 442.261 272.783C440.065 274.17 438.737 274.387 438.175 274.387C436.899 274.387 436.541 273.087 436.439 272.653C436.286 271.873 435.469 271.267 434.498 271.223C432.813 271.18 431.638 270.79 430.923 270.097C430.004 269.187 430.106 267.93 430.157 267.8C430.259 267.02 429.697 266.327 428.88 266.023C427.552 265.59 426.735 264.983 426.479 264.247C426.071 263.163 426.837 261.69 427.348 260.997C427.705 260.52 427.756 259.957 427.501 259.48C427.297 258.96 426.786 258.57 426.173 258.44C425.969 258.397 424.896 258.093 424.641 257.313C424.385 256.62 424.385 254.497 429.697 249.817C439.657 241.063 454.162 237.727 475.204 233.567L491.957 232.873ZM493.642 231.097L474.898 231.92C453.396 236.123 438.533 239.547 428.165 248.69C423.721 252.59 421.832 255.71 422.598 257.877C423.16 259.48 424.998 260.043 425.509 260.173C425.152 260.65 423.721 262.86 424.436 264.853C424.896 266.11 426.122 267.063 428.012 267.713C427.961 268.103 427.858 269.88 429.289 271.31C430.361 272.393 432.047 272.957 434.345 273.043C434.447 273.52 435.162 276.163 438.073 276.163C439.503 276.163 441.291 275.513 443.334 274.213C444.304 273.607 445.224 273 446.092 272.437C450.791 269.36 454.877 266.673 464.632 264.81C466.777 264.42 470.608 263.987 475.46 263.51L477.758 263.25L499.311 258.527L493.642 231.097Z" fill="black"/>
<path d="M474.796 231.92H474.898C476.021 231.703 477.196 231.487 478.371 231.227C481.589 230.577 484.908 229.927 488.432 229.277C522.448 223.08 559.324 204.49 576.74 190.147L576.791 190.103L584.35 192.53L598.651 217.317L598.6 217.36C598.497 217.49 587.976 231.4 558.557 245.44C549.007 249.99 534.961 254.063 516.881 257.53C500.792 260.607 485.521 262.427 477.86 263.207H477.758L474.796 231.92Z" fill="#6C79D9"/>
<path d="M541.601 252.503C541.192 252.503 540.784 252.287 540.63 251.897C540.477 251.463 540.733 250.943 541.294 250.813C546.81 249.253 552.378 247.173 557.996 244.617C563.512 242.017 568.772 239.157 573.676 236.167C574.135 235.907 574.748 235.993 575.106 236.383C575.412 236.773 575.31 237.293 574.85 237.597C569.896 240.63 564.533 243.49 558.966 246.133C553.246 248.733 547.525 250.857 541.958 252.46C541.805 252.503 541.703 252.503 541.601 252.503Z" fill="black"/>
<path d="M435.417 273C435.264 273 435.06 272.957 434.907 272.87C434.396 272.61 434.243 272.09 434.549 271.7C441.546 261.603 454.264 256.75 454.775 256.533C455.285 256.36 455.898 256.533 456.103 256.967C456.307 257.4 456.103 257.92 455.592 258.093C455.49 258.137 442.925 262.947 436.286 272.567C436.132 272.827 435.775 273 435.417 273Z" fill="black"/>
<path d="M429.238 268.233C429.084 268.233 428.88 268.19 428.727 268.103C428.216 267.887 428.063 267.323 428.369 266.933C435.213 256.75 450.791 250.857 451.455 250.64C451.966 250.467 452.579 250.64 452.783 251.073C452.987 251.507 452.783 252.027 452.272 252.2C452.119 252.243 436.592 258.093 430.106 267.8C429.953 268.06 429.595 268.233 429.238 268.233Z" fill="black"/>
<path d="M426.633 261.04C426.428 261.04 426.173 260.997 426.02 260.867C425.56 260.563 425.509 260.043 425.867 259.653C435.979 248.69 447.522 244.747 447.982 244.617C448.493 244.443 449.105 244.66 449.31 245.093C449.514 245.527 449.259 246.047 448.748 246.22C448.646 246.263 437.205 250.12 427.45 260.737C427.246 260.91 426.939 261.04 426.633 261.04Z" fill="black"/>
<path d="M612.543 197.557C606.618 197.557 601.817 193.483 601.817 188.457C601.817 183.43 606.618 179.357 612.543 179.357C618.468 179.357 623.269 183.43 623.269 188.457C623.269 193.483 618.468 197.557 612.543 197.557Z" fill="white"/>
<path d="M612.543 180.18C617.906 180.18 622.247 183.863 622.247 188.413C622.247 192.963 617.906 196.647 612.543 196.647C607.18 196.647 602.839 192.963 602.839 188.413C602.839 183.863 607.18 180.18 612.543 180.18ZM612.543 178.447C606.057 178.447 600.796 182.91 600.796 188.413C600.796 193.917 606.057 198.38 612.543 198.38C619.029 198.38 624.29 193.917 624.29 188.413C624.29 182.91 619.029 178.447 612.543 178.447Z" fill="black"/>
<path d="M589.253 201.543C580.468 201.543 572.552 193.44 569.998 181.87C566.934 167.96 570.815 155.783 578.987 153.53C581.132 152.923 583.379 152.62 585.678 152.62C597.323 152.62 606.72 160.42 606.823 160.507C611.521 164.623 613.513 168.61 613.207 173.377C612.9 178.75 609.683 185.163 603.196 193.57C599.161 198.77 594.36 201.543 589.253 201.543Z" fill="white"/>
<path d="M585.678 151.753V153.487C596.71 153.487 605.75 160.853 606.108 161.113C613.871 167.873 615.914 175.587 602.379 193.093C598.549 198.033 594.003 200.633 589.253 200.633C585.423 200.633 581.541 198.857 578.272 195.693C574.748 192.227 572.194 187.373 570.968 181.697C569.487 174.937 569.641 168.393 571.326 163.237C572.909 158.47 575.77 155.307 579.294 154.31C581.337 153.747 583.482 153.443 585.678 153.443V151.753V151.753ZM585.678 151.753C583.431 151.753 581.081 152.013 578.681 152.707C570.1 155.09 565.759 167.44 568.977 182.043C571.684 194.393 580.213 202.41 589.253 202.41C594.361 202.41 599.621 199.853 604.065 194.09C617.497 176.713 616.629 167.83 607.538 159.9C607.538 159.9 597.885 151.753 585.678 151.753Z" fill="black"/>
<path d="M578.681 152.707C594.003 148.46 607.538 159.9 607.538 159.9C613.411 165.013 615.863 170.517 613.207 178.447L569.743 161.633C571.633 157.04 574.697 153.79 578.681 152.707Z" fill="black"/>
<path d="M579.651 182.043C579.447 182.043 579.192 182 579.038 181.87C578.17 181.263 577.506 180.527 577.149 179.703C576.587 178.36 576.893 176.367 578.272 171.947C578.425 171.47 578.987 171.21 579.498 171.34C580.06 171.47 580.366 171.947 580.213 172.38C578.987 176.28 578.63 178.23 579.038 179.097C579.243 179.617 579.702 180.093 580.264 180.483C580.724 180.787 580.775 181.307 580.417 181.697C580.264 181.913 579.958 182.043 579.651 182.043Z" fill="black"/>
<path d="M586.75 176.54C586.699 176.54 586.648 176.54 586.597 176.54C586.035 176.497 585.627 176.063 585.729 175.587L585.882 174.547C585.933 174.07 586.444 173.723 587.006 173.81C587.568 173.853 587.976 174.287 587.874 174.763L587.721 175.803C587.721 176.237 587.261 176.54 586.75 176.54Z" fill="black"/>
<path d="M573.777 172.38C573.726 172.38 573.675 172.38 573.624 172.38C573.062 172.337 572.654 171.903 572.756 171.427L572.909 170.43C572.96 169.953 573.471 169.607 574.033 169.693C574.595 169.737 575.003 170.17 574.901 170.647L574.748 171.643C574.748 172.077 574.288 172.38 573.777 172.38Z" fill="black"/>
<path d="M583.328 187.763C583.022 187.763 582.715 187.72 582.409 187.677C582.103 187.633 581.745 187.547 581.439 187.417C580.928 187.2 580.724 186.68 580.979 186.247C581.234 185.813 581.847 185.64 582.358 185.857C582.46 185.9 582.664 185.943 582.818 185.943C584.401 186.203 585.933 185.293 586.24 183.95C586.342 183.473 586.903 183.17 587.414 183.257C587.976 183.343 588.334 183.82 588.231 184.253C587.976 185.38 587.261 186.333 586.137 186.983C585.269 187.547 584.299 187.763 583.328 187.763Z" fill="black"/>
<path d="M614.279 190.623C614.126 190.623 613.973 190.58 613.82 190.537L607.64 187.893C607.129 187.677 606.925 187.157 607.18 186.723C607.435 186.29 608.048 186.117 608.559 186.333L614.739 188.977C615.25 189.193 615.454 189.713 615.199 190.147C614.994 190.45 614.637 190.623 614.279 190.623Z" fill="black"/>
<path d="M607.946 158.297C613.898 158.297 618.723 154.203 618.723 149.153C618.723 144.104 613.898 140.01 607.946 140.01C601.995 140.01 597.17 144.104 597.17 149.153C597.17 154.203 601.995 158.297 607.946 158.297Z" fill="black"/>
<path d="M477.809 264.03C477.298 264.03 476.839 263.683 476.788 263.25L473.876 232.05C473.825 231.573 474.234 231.14 474.796 231.097C475.358 231.053 475.868 231.4 475.919 231.877L478.831 263.077C478.882 263.553 478.473 263.987 477.911 264.03C477.86 264.03 477.86 264.03 477.809 264.03Z" fill="black"/>
<path d="M507.994 259.957C507.483 259.957 507.024 259.61 506.973 259.177L503.653 225.463C503.602 224.987 504.01 224.553 504.572 224.51C505.134 224.467 505.645 224.813 505.696 225.29L509.015 259.003C509.067 259.48 508.658 259.913 508.096 259.957C508.045 259.957 508.045 259.957 507.994 259.957Z" fill="black"/>
<path d="M491.139 245.743C494.561 245.267 497.473 247.737 496.911 250.64C496.553 252.417 494.919 253.803 492.825 254.107C489.403 254.583 486.492 252.113 487.053 249.21C487.411 247.477 489.096 246.047 491.139 245.743Z" fill="black"/>
<path d="M614.28 239.503C613.871 239.503 613.514 239.287 613.309 238.983C613.105 238.55 613.36 238.03 613.871 237.857C614.331 237.683 625.465 233.87 637.212 236.08C637.774 236.167 638.131 236.643 637.978 237.12C637.876 237.597 637.314 237.9 636.752 237.77C625.669 235.69 614.739 239.417 614.637 239.46C614.535 239.503 614.433 239.503 614.28 239.503Z" fill="black"/>
<path d="M609.121 227.89C608.712 227.89 608.355 227.717 608.202 227.37C607.946 226.937 608.202 226.417 608.712 226.243C609.172 226.07 619.744 222.083 630.521 224.293C631.083 224.423 631.389 224.857 631.287 225.333C631.134 225.81 630.623 226.07 630.061 225.983C619.949 223.903 609.683 227.803 609.581 227.847C609.428 227.847 609.274 227.89 609.121 227.89Z" fill="black"/>
<path d="M747.788 385.06L741.761 391.863C739.411 395.33 737.419 398.277 735.989 400.443L734.508 402.697C729.963 409.5 727.307 413.443 725.008 415.913L758.258 446.723C767.349 437.363 778.228 424.233 785.787 409.067L747.788 385.06Z" fill="white"/>
<path d="M896.516 399.403C896.465 399.36 890.693 393.64 884.054 388.44L883.952 388.353L884.054 388.31C884.156 388.267 889.212 380.813 898.252 379.167C899.938 378.863 901.521 378.69 902.951 378.69C906.986 378.69 911.378 381.637 911.532 381.767C912.706 382.807 913.166 384.757 912.553 386.793C911.072 391.43 905.096 396.457 897.231 399.923L897.18 399.967L896.516 399.403Z" fill="black"/>
<path d="M714.232 311.783C706.979 306.367 701.974 301.297 698.654 297.873L698.348 297.57L705.805 280.54C705.907 280.323 705.907 280.107 705.805 279.933C704.783 277.637 703.966 274.43 705.09 272.957C705.498 272.437 706.111 272.133 706.979 272.09C707.95 272.133 712.649 274.647 717.603 277.333C721.944 279.673 727.256 282.533 733.027 285.393L736.807 287.82L719.901 314.947L714.232 311.783Z" fill="white"/>
<path d="M706.928 272.957C708.154 273.26 712.699 275.687 717.092 278.07C721.382 280.41 726.745 283.27 732.516 286.13L735.581 288.08L719.594 313.69L714.896 311.133C707.796 305.847 702.842 300.82 699.573 297.44L706.826 280.887C706.979 280.497 706.979 280.063 706.826 279.673C705.804 277.42 705.192 274.56 706.009 273.477C706.06 273.217 706.315 273.043 706.928 272.957ZM706.928 271.223C706.877 271.223 706.877 271.223 706.928 271.223C705.651 271.31 704.783 271.743 704.221 272.523C702.536 274.777 704.425 279.283 704.885 280.28L697.224 297.787L697.888 298.48C701.208 301.903 706.264 307.06 713.619 312.52L720.361 316.203L738.185 287.603L733.64 284.7C727.868 281.84 722.506 278.937 718.164 276.64C712.138 273.347 708.205 271.223 706.928 271.223Z" fill="black"/>
<path d="M786.451 334.923C758.155 334.923 733.64 327.383 713.568 312.477L713.517 312.433L733.487 284.613L733.589 284.657C742.629 289.12 750.341 292.283 757.185 294.407C763.722 296.4 771.792 297.483 780.577 297.483C795.44 297.483 811.222 294.537 822.713 289.553L822.815 289.51L829.455 316.637V316.68C829.302 316.853 816.176 334.057 792.12 334.88C790.281 334.88 788.34 334.923 786.451 334.923Z" fill="#F696BB"/>
<path d="M747.992 386.23L784.51 409.283C777.615 422.89 768.064 434.85 759.637 443.82L730.269 410.67C731.699 408.633 733.333 406.163 735.376 403.13L736.858 400.877C738.288 398.71 740.228 395.807 742.629 392.34L747.992 386.23ZM747.583 383.803L740.892 391.3C738.492 394.81 736.551 397.757 735.07 399.967L733.589 402.22C730.933 406.207 728.941 409.197 727.307 411.45L759.432 446.68C768.575 437.19 779.402 423.973 786.859 408.763L786.91 408.72L747.583 383.803Z" fill="black"/>
<path d="M844.982 198.987L738.084 203.277L755.551 144.517L847.28 191.273C849.578 192.443 850.345 195 848.966 196.993C848.097 198.163 846.616 198.943 844.982 198.987Z" fill="#98D8F4"/>
<path d="M761.67 193.352C775.831 181.337 775.831 161.857 761.67 149.842C747.509 137.827 724.548 137.827 710.387 149.842C696.226 161.857 696.226 181.337 710.387 193.352C724.548 205.367 747.509 205.367 761.67 193.352Z" fill="white"/>
<path d="M736.041 141.7C755.5 141.7 771.282 155.133 771.282 171.6C771.282 188.067 755.449 201.5 736.041 201.5C716.632 201.5 700.799 188.067 700.799 171.6C700.799 155.133 716.632 141.7 736.041 141.7ZM736.041 139.967C715.458 139.967 698.756 154.137 698.756 171.6C698.756 189.063 715.458 203.233 736.041 203.233C756.623 203.233 773.325 189.063 773.325 171.6C773.325 154.137 756.623 139.967 736.041 139.967Z" fill="black"/>
<path d="M695.59 319.323C695.488 319.323 695.436 319.323 695.334 319.28C694.772 319.15 694.466 318.717 694.568 318.24L728.124 202.28C728.277 201.803 728.788 201.543 729.35 201.63C729.912 201.76 730.218 202.193 730.116 202.67L696.56 318.673C696.458 319.063 696.049 319.323 695.59 319.323Z" fill="black"/>
<path d="M701.616 301.037C700.084 301.037 697.939 300.257 695.334 298.827C693.955 298.09 693.036 296.92 692.78 295.62C692.576 294.537 692.832 293.497 693.547 292.673C693.751 292.413 693.802 292.11 693.7 291.85C693.24 290.897 693.24 289.77 693.751 288.817C694.108 288.08 694.772 287.517 695.59 287.257C695.845 287.17 696.049 286.997 696.151 286.78C696.254 286.563 696.254 286.303 696.151 286.087C695.845 285.48 695.743 284.483 696.305 283.573C696.866 282.707 697.888 282.143 699.318 282.013C699.829 281.97 700.186 281.623 700.186 281.19C700.339 278.85 702.178 278.07 703.097 277.94C703.353 277.897 703.608 277.897 703.864 277.897C707.745 277.897 713.465 280.237 714.334 282.707C714.742 283.877 713.925 284.96 711.984 286C711.576 286.217 711.423 286.607 711.576 286.953C711.627 287.127 712.138 288.687 711.32 289.857C710.861 290.55 709.992 291.027 708.767 291.287C708.511 291.33 708.256 291.503 708.103 291.677C707.949 291.85 707.949 292.11 708.001 292.37C708.103 292.63 708.511 294.103 707.745 295.273C707.286 295.967 706.417 296.443 705.191 296.703C704.732 296.79 704.374 297.18 704.425 297.57C704.425 297.743 704.476 299.477 703.455 300.387C702.995 300.863 702.382 301.037 701.616 301.037Z" fill="white"/>
<path d="M703.966 278.807C707.745 278.807 712.802 281.06 713.466 283.01C713.721 283.747 713.057 284.527 711.525 285.35C710.759 285.783 710.401 286.563 710.657 287.3C710.81 287.777 710.963 288.817 710.503 289.553C710.197 290.03 709.533 290.377 708.614 290.55C708.052 290.68 707.592 290.94 707.337 291.373C707.03 291.763 706.979 292.283 707.133 292.717C707.184 292.847 707.541 294.06 706.979 294.927C706.673 295.403 706.009 295.75 705.09 295.923C704.119 296.097 703.455 296.833 703.506 297.657C703.506 298.177 703.404 299.303 702.791 299.867C702.638 300.04 702.332 300.213 701.668 300.213C700.901 300.213 699.165 299.953 695.947 298.177C694.824 297.57 694.058 296.573 693.853 295.533C693.7 294.71 693.904 293.887 694.466 293.237C694.875 292.76 694.977 292.11 694.722 291.547C694.364 290.81 694.364 289.9 694.722 289.163C694.977 288.643 695.437 288.253 696.049 288.037C696.56 287.863 696.969 287.517 697.173 287.083C697.377 286.65 697.377 286.13 697.122 285.74C696.969 285.437 696.816 284.7 697.275 284.007C697.684 283.4 698.399 283.01 699.522 282.88C700.493 282.793 701.259 282.1 701.31 281.277C701.463 279.067 703.302 278.85 703.353 278.85C703.455 278.807 703.711 278.807 703.966 278.807ZM703.966 277.073C703.659 277.073 703.353 277.073 703.047 277.117C701.821 277.247 699.42 278.243 699.216 281.147C696.969 281.407 695.947 282.403 695.437 283.183C694.721 284.353 694.824 285.653 695.232 286.433C694.16 286.823 693.291 287.517 692.832 288.47C692.27 289.597 692.219 290.983 692.781 292.153C691.861 293.193 691.555 294.45 691.81 295.793C692.117 297.31 693.189 298.697 694.773 299.563C697.531 301.123 699.829 301.903 701.617 301.903C702.689 301.903 703.557 301.6 704.221 301.037C705.498 299.867 705.498 298.003 705.498 297.613C707.03 297.31 708.103 296.703 708.716 295.793C709.686 294.363 709.227 292.63 709.073 292.24C710.606 291.937 711.678 291.33 712.291 290.42C713.261 288.947 712.751 287.213 712.648 286.823C715.611 285.22 715.815 283.617 715.458 282.533C714.385 279.587 708.256 277.073 703.966 277.073Z" fill="black"/>
<path d="M704.681 297.57C704.425 297.57 704.119 297.483 703.915 297.267C700.186 293.757 694.313 293.107 694.211 293.063C693.649 293.02 693.24 292.587 693.342 292.11C693.393 291.633 693.904 291.287 694.466 291.373C694.721 291.417 701.157 292.11 705.396 296.097C705.753 296.443 705.753 297.007 705.294 297.31C705.191 297.483 704.936 297.57 704.681 297.57Z" fill="black"/>
<path d="M708.256 292.153C708.001 292.153 707.745 292.067 707.592 291.937C707.541 291.893 703.455 288.817 696.509 287.82C695.947 287.733 695.59 287.3 695.692 286.823C695.794 286.347 696.305 286.043 696.866 286.13C704.425 287.257 708.767 290.55 708.971 290.68C709.38 290.983 709.431 291.547 709.022 291.893C708.818 292.067 708.511 292.153 708.256 292.153Z" fill="black"/>
<path d="M711.269 286.823C711.065 286.823 710.81 286.78 710.657 286.65C709.022 285.523 706.213 283.66 700.339 282.88C699.778 282.793 699.42 282.36 699.471 281.883C699.573 281.407 700.084 281.103 700.646 281.147C707.03 281.97 710.197 284.137 711.882 285.263C712.342 285.567 712.393 286.087 712.036 286.477C711.882 286.693 711.576 286.823 711.269 286.823Z" fill="black"/>
<path d="M776.695 343.33L776.798 343.2C781.752 336.83 786.451 330.763 790.996 324.87C799.628 313.69 807.085 304.027 813.826 295.88L813.878 295.837L832.009 294.363L876.546 343.33H776.695V343.33Z" fill="#F696BB"/>
<path d="M865.258 427.18C863.879 425.75 862.245 424.277 860.304 422.803L860.1 422.673C856.984 420.29 846.463 412.273 841.509 408.46C839.67 406.467 839.159 404.56 839.977 402.61C843.296 394.377 869.14 387.4 879.508 385.233L883.441 388.96L883.492 389.003C890.029 394.117 895.648 399.663 895.852 399.923L896.414 400.443C897.997 401.96 903.768 407.55 909.387 414.267C912.553 418.037 872.102 434.33 865.258 427.18Z" fill="white"/>
<path d="M879.202 386.143L882.726 389.48C882.777 389.523 882.828 389.567 882.879 389.61C889.365 394.723 894.932 400.227 895.188 400.443C895.188 400.443 895.188 400.443 895.239 400.487L895.801 401.007C898.252 403.303 910.357 415.133 916.843 425.88L871.285 433.55C869.344 429.953 866.178 426.097 861.07 422.153L860.866 422.023C857.75 419.64 847.331 411.667 842.326 407.853C840.743 406.163 840.334 404.517 840.998 402.87C842.53 399.1 849.834 394.897 861.632 390.997C869.242 388.44 876.495 386.75 879.202 386.143ZM879.865 384.237C879.457 384.323 843.296 391.733 839.006 402.263C838.087 404.517 838.7 406.77 840.794 408.98C846.514 413.313 859.538 423.28 859.64 423.367C862.602 425.663 864.901 427.96 866.637 430.127C867.71 431.513 868.629 432.857 869.293 434.157L919.142 426.097C916.792 422.023 913.626 417.777 910.357 413.877C904.636 407.03 898.763 401.31 897.18 399.75L896.618 399.23C896.567 399.187 890.795 393.467 884.156 388.267L879.865 384.237Z" fill="black"/>
<path d="M805.348 417.04C803.816 417.04 802.284 416.997 800.803 416.953C762.905 415.177 741.148 391.647 740.944 391.43L740.892 391.387L740.944 391.343C742.374 389.22 744.059 386.793 745.847 384.237C753.865 372.667 763.774 359.537 775.265 345.193C775.776 344.543 776.849 343.2 776.849 343.2H860.764L911.583 381.81C904.126 377.13 893.707 381.463 884.309 388.397C884.003 388.613 883.492 389.047 882.777 389.523C879.048 392.167 869.038 399.143 855.452 405.34C838.342 413.097 821.488 417.04 805.348 417.04Z" fill="#F9494B"/>
<path d="M757.287 404.56C757.134 404.56 756.981 404.517 756.828 404.473C756.317 404.257 756.113 403.737 756.368 403.303L791.354 343.157C791.609 342.723 792.222 342.55 792.733 342.767C793.244 342.983 793.448 343.503 793.193 343.937L758.207 404.083C758.002 404.387 757.645 404.56 757.287 404.56Z" fill="black"/>
<path d="M794.674 417.17C794.623 417.17 794.572 417.17 794.469 417.17C793.908 417.083 793.55 416.65 793.652 416.173L809.179 343.417C809.281 342.94 809.792 342.637 810.354 342.723C810.915 342.81 811.273 343.243 811.171 343.72L795.644 416.477C795.593 416.867 795.185 417.17 794.674 417.17Z" fill="black"/>
<path d="M830.119 415.133C829.557 415.133 829.149 414.787 829.098 414.31L824.297 343.677C824.246 343.2 824.705 342.81 825.267 342.767C825.829 342.723 826.289 343.113 826.34 343.59L831.141 414.223C831.192 414.7 830.732 415.09 830.119 415.133Z" fill="black"/>
<path d="M866.535 400.92C866.126 400.92 865.718 400.703 865.565 400.357L840.181 343.85C839.976 343.417 840.232 342.897 840.794 342.723C841.304 342.55 841.917 342.767 842.122 343.243L867.505 399.75C867.71 400.183 867.454 400.703 866.893 400.877C866.79 400.92 866.637 400.92 866.535 400.92Z" fill="black"/>
<path d="M895.443 384.063C895.188 384.063 894.881 383.977 894.677 383.803L851.928 344.24C851.57 343.893 851.57 343.33 851.979 343.027C852.388 342.723 853.052 342.723 853.409 343.07L896.158 382.633C896.516 382.98 896.516 383.543 896.107 383.847C895.954 383.977 895.698 384.063 895.443 384.063Z" fill="black"/>
<path d="M814.491 360.143C808.26 360.143 806.217 358.93 805.553 358.193C805.093 357.673 805.093 357.24 805.144 357.11C805.195 356.677 804.889 356.287 804.378 356.157C804.071 356.07 802.539 355.68 801.875 354.727C801.518 354.163 801.518 353.513 801.875 352.733C802.028 352.387 801.875 351.953 801.518 351.737C800.701 351.217 800.241 350.653 800.139 350.003C799.986 348.79 801.058 347.62 801.16 347.49C801.416 347.23 801.467 346.883 801.262 346.58C801.211 346.45 800.854 345.757 801.262 344.803C801.977 343.287 804.327 341.943 808.055 340.947C808.362 340.86 808.617 340.643 808.719 340.34C808.821 340.08 808.719 339.777 808.515 339.56C808.362 339.387 807.851 338.823 808.004 338.13C808.157 337.35 809.23 336.527 810.967 335.877C812.55 335.27 820.415 333.277 833.133 330.287L837.219 330.07L847.434 355.593L841.917 357.283C834.358 358.497 827.259 359.233 820.671 359.84C818.423 360.057 816.329 360.143 814.491 360.143Z" fill="white"/>
<path d="M836.606 330.98L846.208 355.073L841.713 356.46C834.205 357.673 827.157 358.41 820.62 358.973C818.372 359.19 816.278 359.277 814.491 359.277C808.311 359.277 806.676 358.063 806.37 357.673C806.166 357.457 806.166 357.283 806.166 357.283C806.319 356.417 805.655 355.593 804.633 355.377C804.174 355.29 803.152 354.9 802.795 354.337C802.744 354.207 802.488 353.86 802.846 353.037C803.152 352.3 802.846 351.52 802.131 351.043C801.262 350.523 801.211 350.047 801.16 349.917C801.058 349.223 801.62 348.4 801.977 348.053C802.488 347.533 802.539 346.797 802.233 346.233C802.182 346.19 801.977 345.757 802.284 345.15C802.846 343.893 805.042 342.723 808.464 341.77C809.128 341.597 809.639 341.163 809.792 340.6C809.996 340.037 809.843 339.43 809.383 338.997C809.332 338.953 809.026 338.607 809.077 338.303C809.179 337.913 809.843 337.307 811.477 336.657C812.397 336.31 816.431 335.14 833.388 331.11L836.606 330.98ZM838.036 329.203L833.031 329.463C823.99 331.587 812.703 334.317 810.609 335.14C808.464 335.963 807.289 336.96 807.034 338.043C806.83 339.083 807.493 339.907 807.8 340.167C803.714 341.293 801.211 342.767 800.343 344.543C799.73 345.8 800.241 346.797 800.343 347.013C800.088 347.273 798.862 348.617 799.117 350.177C799.271 351.087 799.832 351.867 800.905 352.517C800.445 353.557 800.496 354.467 801.007 355.203C801.824 356.503 803.714 356.98 804.123 357.067C804.071 357.327 804.072 358.02 804.735 358.8C805.706 359.84 808.157 361.053 814.491 361.053C816.38 361.053 818.474 360.923 820.824 360.75C827.412 360.143 834.614 359.407 842.224 358.193L848.762 356.2L838.036 329.203Z" fill="black"/>
<path d="M832.979 329.463L833.082 329.42C841.151 327.513 848.608 325.823 849.63 325.563L831.856 294.493L831.447 288.687L849.783 296.487C860.253 302.38 884.615 317.763 884.615 332.887C884.615 345.063 870.366 353.643 842.224 358.193H842.122L832.979 329.463Z" fill="#F696BB"/>
<path d="M808.77 341.683C808.311 341.683 807.902 341.423 807.8 341.033C807.647 340.557 808.004 340.08 808.515 339.993L814.95 338.607C815.512 338.477 816.074 338.78 816.176 339.213C816.329 339.69 815.972 340.167 815.461 340.253L809.026 341.64C808.924 341.683 808.872 341.683 808.77 341.683Z" fill="black"/>
<path d="M801.824 348.053C801.313 348.053 800.854 347.707 800.803 347.273C800.752 346.797 801.16 346.363 801.722 346.32C801.773 346.32 806.778 345.843 824.654 342.247C825.216 342.117 825.778 342.42 825.88 342.897C826.033 343.373 825.676 343.85 825.114 343.937C807.085 347.533 802.131 348.01 801.926 348.01C801.875 348.053 801.875 348.053 801.824 348.053Z" fill="black"/>
<path d="M802.131 352.863C801.569 352.863 801.109 352.473 801.109 351.997C801.109 351.52 801.569 351.13 802.131 351.13C805.45 351.13 819.24 349.743 825.931 348.01C826.493 347.88 827.055 348.14 827.208 348.573C827.361 349.05 827.055 349.527 826.544 349.657C819.547 351.477 805.655 352.863 802.131 352.863Z" fill="black"/>
<path d="M804.94 357.197C804.378 357.197 803.918 356.807 803.918 356.33C803.918 355.853 804.378 355.463 804.94 355.463C810.098 355.463 820.262 354.553 827.208 353.21C827.77 353.123 828.281 353.383 828.434 353.86C828.536 354.337 828.23 354.77 827.668 354.9C820.364 356.33 810.2 357.197 804.94 357.197Z" fill="black"/>
<path d="M832.111 331.5C831.652 331.5 831.243 331.24 831.141 330.85C830.988 330.373 831.294 329.897 831.856 329.767L856.984 323.873C857.546 323.743 858.108 324.003 858.261 324.48C858.415 324.957 858.108 325.433 857.546 325.563L832.418 331.457C832.316 331.5 832.213 331.5 832.111 331.5Z" fill="black"/>
<path d="M849.732 326.517C849.374 326.517 848.966 326.343 848.812 326.04L842.53 314.773C842.275 314.34 842.53 313.82 843.041 313.603C843.552 313.387 844.165 313.603 844.42 314.037L850.702 325.303C850.958 325.737 850.702 326.257 850.192 326.473C850.038 326.473 849.885 326.517 849.732 326.517Z" fill="black"/>
<path d="M844.42 298.74C838.496 298.74 833.695 294.667 833.695 289.64C833.695 284.613 838.496 280.54 844.42 280.54C850.345 280.54 855.146 284.613 855.146 289.64C855.146 294.667 850.345 298.74 844.42 298.74Z" fill="white"/>
<path d="M844.42 281.407C849.783 281.407 854.124 285.09 854.124 289.64C854.124 294.19 849.783 297.873 844.42 297.873C839.057 297.873 834.716 294.19 834.716 289.64C834.716 285.09 839.108 281.407 844.42 281.407ZM844.42 279.673C837.934 279.673 832.673 284.137 832.673 289.64C832.673 295.143 837.934 299.607 844.42 299.607C850.907 299.607 856.167 295.143 856.167 289.64C856.167 284.137 850.907 279.673 844.42 279.673Z" fill="black"/>
<path d="M821.13 302.77C812.346 302.77 804.429 294.667 801.875 283.097C798.811 269.187 802.693 257.01 810.864 254.757C813.01 254.15 815.257 253.847 817.555 253.847C829.2 253.847 838.598 261.647 838.7 261.733C843.399 265.85 845.391 269.837 845.084 274.603C844.778 279.977 841.56 286.39 835.074 294.797C831.09 299.997 826.238 302.77 821.13 302.77Z" fill="white"/>
<path d="M817.555 252.98V254.713C828.587 254.713 837.627 262.08 837.985 262.34C845.748 269.1 847.791 276.813 834.256 294.32C830.426 299.26 825.88 301.86 821.13 301.86C817.3 301.86 813.418 300.083 810.149 296.92C806.625 293.453 804.071 288.6 802.846 282.923C801.365 276.163 801.518 269.62 803.203 264.463C804.787 259.697 807.647 256.533 811.171 255.537C813.214 254.973 815.359 254.67 817.555 254.67V252.98ZM817.555 252.98C815.308 252.98 812.958 253.24 810.558 253.933C801.977 256.317 797.636 268.667 800.854 283.27C803.561 295.62 812.09 303.637 821.13 303.637C826.238 303.637 831.498 301.08 835.942 295.317C849.374 277.94 848.506 269.057 839.415 261.127C839.415 261.127 829.762 252.98 817.555 252.98Z" fill="black"/>
<path d="M839.415 261.127C846.361 267.193 848.506 273.823 843.092 284.44C832.06 278.287 831.549 261.603 831.549 261.603C815.308 268.667 801.262 263.987 801.262 263.987C802.999 258.787 806.268 255.103 810.558 253.89C825.88 249.687 839.415 261.127 839.415 261.127Z" fill="black"/>
<path d="M811.528 283.27C811.324 283.27 811.069 283.227 810.915 283.097C810.047 282.49 809.383 281.753 809.026 280.93C808.464 279.587 808.77 277.593 810.149 273.173C810.302 272.697 810.864 272.437 811.375 272.567C811.937 272.697 812.243 273.173 812.09 273.607C810.864 277.507 810.507 279.457 810.915 280.323C811.12 280.843 811.579 281.32 812.141 281.71C812.601 282.013 812.652 282.533 812.294 282.923C812.141 283.14 811.835 283.27 811.528 283.27Z" fill="black"/>
<path d="M818.628 277.767C818.576 277.767 818.525 277.767 818.474 277.767C817.913 277.68 817.555 277.247 817.657 276.77L817.861 275.73C817.964 275.253 818.474 274.95 819.036 275.037C819.598 275.123 819.955 275.557 819.853 276.033L819.649 277.073C819.547 277.463 819.138 277.767 818.628 277.767Z" fill="black"/>
<path d="M805.655 273.607C805.604 273.607 805.553 273.607 805.501 273.607C804.94 273.563 804.531 273.13 804.633 272.653L804.786 271.613C804.837 271.137 805.348 270.79 805.91 270.877C806.472 270.92 806.881 271.353 806.778 271.83L806.625 272.87C806.625 273.303 806.165 273.607 805.655 273.607Z" fill="black"/>
<path d="M815.257 288.99C814.95 288.99 814.644 288.947 814.337 288.903C814.031 288.86 813.673 288.773 813.367 288.643C812.856 288.427 812.652 287.907 812.907 287.473C813.163 287.04 813.776 286.867 814.286 287.083C814.388 287.127 814.593 287.17 814.746 287.17C815.512 287.3 816.278 287.17 816.942 286.78C817.606 286.39 818.015 285.827 818.168 285.177C818.27 284.7 818.832 284.397 819.343 284.483C819.905 284.57 820.262 285.047 820.16 285.48C819.905 286.607 819.189 287.56 818.066 288.21C817.198 288.773 816.227 288.99 815.257 288.99Z" fill="black"/>
<path d="M846.157 291.85C846.003 291.85 845.85 291.807 845.697 291.763L839.568 289.12C839.057 288.903 838.853 288.383 839.108 287.95C839.364 287.517 839.977 287.343 840.487 287.56L846.616 290.203C847.127 290.42 847.331 290.94 847.076 291.373C846.872 291.677 846.514 291.85 846.157 291.85Z" fill="black"/>
<path d="M846.565 262.773C856.494 262.773 864.543 255.944 864.543 247.52C864.543 239.096 856.494 232.267 846.565 232.267C836.636 232.267 828.587 239.096 828.587 247.52C828.587 255.944 836.636 262.773 846.565 262.773Z" fill="black"/>
<path d="M783.54 335.573C783.335 335.573 783.131 335.53 782.978 335.443C782.518 335.183 782.365 334.62 782.671 334.23L798.964 313.517C799.27 313.127 799.934 312.997 800.394 313.257C800.854 313.517 801.007 314.08 800.7 314.47L784.408 335.183C784.204 335.443 783.846 335.573 783.54 335.573Z" fill="black"/>
<path d="M816.585 318.023C816.533 318.023 816.431 318.023 816.38 318.023C815.818 317.937 815.461 317.46 815.563 316.983L818.934 302.857C819.036 302.38 819.598 302.077 820.16 302.163C820.722 302.25 821.079 302.727 820.977 303.203L817.606 317.33C817.504 317.72 817.044 318.023 816.585 318.023Z" fill="black"/>
<path d="M877.005 462.453C876.801 462.323 872.102 459.55 872.102 446.03C872.102 440.96 871.132 434.157 863.471 426.747L863.42 426.703V426.66C863.42 426.617 865.463 422.023 874.962 417.993C886.148 413.227 908.059 411.537 908.314 411.493H908.365L908.416 411.537C913.115 416.953 916.792 421.893 919.193 426.14L919.244 426.183L877.108 462.453H877.005V462.453Z" fill="#F696BB"/>
<path d="M693.853 427.44C696.151 423.15 700.186 422.413 707.439 421.157C709.226 420.853 711.269 420.463 713.568 420.03C721.331 418.47 722.761 418.167 729.145 408.85L729.196 408.807H729.248C729.248 408.807 729.299 408.807 729.401 408.807C730.627 408.807 737.266 409.413 748.196 421.677C755.602 429.953 761.986 443.907 762.037 444.037V444.08L761.986 444.123C751.516 455.433 742.476 462.367 742.425 462.41L742.374 462.453L693.853 427.44Z" fill="#F696BB"/>
<path d="M717.909 429.477C717.45 429.477 717.041 429.217 716.939 428.827L714.181 419.987C714.028 419.51 714.385 419.033 714.896 418.947C715.458 418.817 716.019 419.12 716.122 419.553L718.88 428.393C719.033 428.87 718.675 429.347 718.165 429.433C718.062 429.477 718.011 429.477 717.909 429.477Z" fill="black"/>
<path d="M871.285 439.617C870.876 439.617 870.519 439.443 870.366 439.097C870.11 438.663 870.366 438.143 870.876 437.97L881.347 433.94C881.857 433.723 882.47 433.94 882.674 434.373C882.93 434.807 882.674 435.327 882.164 435.5L871.694 439.53C871.591 439.573 871.438 439.617 871.285 439.617Z" fill="black"/>
<path d="M539.466 83.8219C538.832 83.8219 538.318 84.336 538.318 84.9703C538.318 85.6046 538.832 86.1187 539.466 86.1187C541.366 86.1187 542.911 87.6643 542.911 89.5641C542.911 90.1983 543.426 90.7125 544.06 90.7125C544.694 90.7125 545.208 90.1983 545.208 89.5641C545.208 86.3978 542.632 83.8219 539.466 83.8219Z" fill="white"/>
<path d="M558.989 70.8445C558.989 66.4118 555.383 62.8055 550.95 62.8055C546.518 62.8055 542.911 66.4118 542.911 70.8445C542.911 75.2773 546.518 78.8836 550.95 78.8836C555.383 78.8836 558.989 75.2773 558.989 70.8445ZM550.95 76.5867C547.784 76.5867 545.208 74.0108 545.208 70.8445C545.208 67.6783 547.784 65.1023 550.95 65.1023C554.117 65.1023 556.692 67.6783 556.692 70.8445C556.692 74.0108 554.117 76.5867 550.95 76.5867Z" fill="white"/>
<path d="M550.95 67.3992C550.316 67.3992 549.802 67.9134 549.802 68.5477C549.802 69.182 550.316 69.6961 550.95 69.6961C551.584 69.6961 552.099 70.2113 552.099 70.8445C552.099 71.4788 552.613 71.993 553.247 71.993C553.881 71.993 554.396 71.4788 554.396 70.8445C554.396 68.9448 552.85 67.3992 550.95 67.3992Z" fill="white"/>
<path d="M526.833 70.8445C526.833 74.0108 529.409 76.5867 532.575 76.5867C535.742 76.5867 538.318 74.0108 538.318 70.8445C538.318 67.6783 535.742 65.1024 532.575 65.1024C529.409 65.1024 526.833 67.6783 526.833 70.8445ZM536.021 70.8445C536.021 72.7443 534.475 74.2898 532.575 74.2898C530.676 74.2898 529.13 72.7443 529.13 70.8445C529.13 68.9448 530.676 67.3992 532.575 67.3992C534.475 67.3992 536.021 68.9448 536.021 70.8445Z" fill="white"/>
<path d="M550.95 48.3351C547.784 48.3351 545.208 50.9111 545.208 54.0773C545.208 57.2436 547.784 59.8195 550.95 59.8195C554.117 59.8195 556.693 57.2436 556.693 54.0773C556.693 50.9111 554.117 48.3351 550.95 48.3351ZM550.95 57.5226C549.051 57.5226 547.505 55.9771 547.505 54.0773C547.505 52.1776 549.051 50.632 550.95 50.632C552.85 50.632 554.396 52.1776 554.396 54.0773C554.396 55.9771 552.85 57.5226 550.95 57.5226Z" fill="white"/>
<path d="M541.763 41.1C539.863 41.1 538.318 42.6456 538.318 44.5453C538.318 46.445 539.863 47.9906 541.763 47.9906C543.663 47.9906 545.208 46.445 545.208 44.5453C545.208 42.6456 543.663 41.1 541.763 41.1ZM541.763 45.6937C541.13 45.6937 540.614 45.1786 540.614 44.5453C540.614 43.9121 541.13 43.3969 541.763 43.3969C542.396 43.3969 542.911 43.9121 542.911 44.5453C542.911 45.1786 542.396 45.6937 541.763 45.6937Z" fill="white"/>
<path d="M536.021 58.6711C536.021 60.5708 537.566 62.1164 539.466 62.1164C541.366 62.1164 542.911 60.5708 542.911 58.6711C542.911 56.7713 541.366 55.2258 539.466 55.2258C537.566 55.2258 536.021 56.7713 536.021 58.6711ZM539.466 57.5226C540.099 57.5226 540.614 58.0378 540.614 58.6711C540.614 59.3043 540.099 59.8195 539.466 59.8195C538.833 59.8195 538.317 59.3043 538.317 58.6711C538.317 58.0378 538.833 57.5226 539.466 57.5226Z" fill="white"/>
<path d="M546.012 97.2586C546.646 97.2586 547.161 96.7444 547.161 96.1101C547.161 95.4759 546.646 94.9617 546.012 94.9617C545.378 94.9617 544.864 95.4759 544.864 96.1101C544.864 96.7444 545.378 97.2586 546.012 97.2586Z" fill="white"/>
<path d="M548.192 92.6696C548.81 92.806 549.424 92.4145 549.56 91.795C549.721 91.0665 549.802 90.3159 549.802 89.564C549.802 83.8648 545.165 79.2281 539.466 79.2281C533.767 79.2281 529.13 83.8648 529.13 89.564C529.13 95.2633 533.767 99.9 539.466 99.9C540.218 99.9 540.969 99.8187 541.697 99.6583C542.316 99.5219 542.708 98.9093 542.571 98.2898C542.435 97.6703 541.823 97.279 541.203 97.4151C540.636 97.5398 540.052 97.6031 539.466 97.6031C535.033 97.6031 531.427 93.9968 531.427 89.564C531.427 85.1313 535.033 81.525 539.466 81.525C543.899 81.525 547.505 85.1313 547.505 89.564C547.505 90.1502 547.442 90.7346 547.317 91.3012C547.181 91.9206 547.572 92.5333 548.192 92.6696V92.6696Z" fill="white"/>
<path d="M586.919 89.266C584.969 89.266 583.221 88.9493 581.675 88.316C580.13 87.6827 578.889 86.7453 577.951 85.504C577.039 84.2627 576.558 82.768 576.507 81.02H583.423C583.525 82.008 583.867 82.768 584.449 83.3C585.032 83.8067 585.792 84.06 586.729 84.06C587.692 84.06 588.452 83.8447 589.009 83.414C589.567 82.958 589.845 82.3373 589.845 81.552C589.845 80.8933 589.617 80.3487 589.161 79.918C588.731 79.4873 588.186 79.1327 587.527 78.854C586.894 78.5753 585.982 78.2587 584.791 77.904C583.069 77.372 581.663 76.84 580.573 76.308C579.484 75.776 578.547 74.9907 577.761 73.952C576.976 72.9133 576.583 71.558 576.583 69.886C576.583 67.4033 577.483 65.4653 579.281 64.072C581.08 62.6533 583.423 61.944 586.311 61.944C589.25 61.944 591.619 62.6533 593.417 64.072C595.216 65.4653 596.179 67.416 596.305 69.924H589.275C589.225 69.0627 588.908 68.3913 588.325 67.91C587.743 67.4033 586.995 67.15 586.083 67.15C585.298 67.15 584.665 67.3653 584.183 67.796C583.702 68.2013 583.461 68.7967 583.461 69.582C583.461 70.4433 583.867 71.1147 584.677 71.596C585.488 72.0773 586.755 72.5967 588.477 73.154C590.2 73.7367 591.593 74.294 592.657 74.826C593.747 75.358 594.684 76.1307 595.469 77.144C596.255 78.1573 596.647 79.462 596.647 81.058C596.647 82.578 596.255 83.9587 595.469 85.2C594.709 86.4413 593.595 87.4293 592.125 88.164C590.656 88.8987 588.921 89.266 586.919 89.266ZM612.464 83.49V89H609.158C606.802 89 604.965 88.43 603.648 87.29C602.331 86.1247 601.672 84.2373 601.672 81.628V73.192H599.088V67.796H601.672V62.628H608.17V67.796H612.426V73.192H608.17V81.704C608.17 82.3373 608.322 82.7933 608.626 83.072C608.93 83.3507 609.437 83.49 610.146 83.49H612.464ZM625.736 89.304C623.658 89.304 621.784 88.8607 620.112 87.974C618.465 87.0873 617.16 85.8207 616.198 84.174C615.26 82.5273 614.792 80.602 614.792 78.398C614.792 76.2193 615.273 74.3067 616.236 72.66C617.198 70.988 618.516 69.7087 620.188 68.822C621.86 67.9353 623.734 67.492 625.812 67.492C627.889 67.492 629.764 67.9353 631.436 68.822C633.108 69.7087 634.425 70.988 635.388 72.66C636.35 74.3067 636.832 76.2193 636.832 78.398C636.832 80.5767 636.338 82.502 635.35 84.174C634.387 85.8207 633.057 87.0873 631.36 87.974C629.688 88.8607 627.813 89.304 625.736 89.304ZM625.736 83.68C626.977 83.68 628.028 83.224 628.89 82.312C629.776 81.4 630.22 80.0953 630.22 78.398C630.22 76.7007 629.789 75.396 628.928 74.484C628.092 73.572 627.053 73.116 625.812 73.116C624.545 73.116 623.494 73.572 622.658 74.484C621.822 75.3707 621.404 76.6753 621.404 78.398C621.404 80.0953 621.809 81.4 622.62 82.312C623.456 83.224 624.494 83.68 625.736 83.68ZM646.777 71.33C647.537 70.1647 648.487 69.2527 649.627 68.594C650.767 67.91 652.034 67.568 653.427 67.568V74.446H651.641C650.02 74.446 648.804 74.8007 647.993 75.51C647.182 76.194 646.777 77.41 646.777 79.158V89H640.279V67.796H646.777V71.33ZM678.193 67.796L664.893 99.07H657.901L662.765 88.278L654.139 67.796H661.397L666.299 81.058L671.163 67.796H678.193ZM687.041 70.798C687.649 69.81 688.523 69.012 689.663 68.404C690.803 67.796 692.107 67.492 693.577 67.492C695.325 67.492 696.908 67.9353 698.327 68.822C699.745 69.7087 700.86 70.9753 701.671 72.622C702.507 74.2687 702.925 76.1813 702.925 78.36C702.925 80.5387 702.507 82.464 701.671 84.136C700.86 85.7827 699.745 87.062 698.327 87.974C696.908 88.8607 695.325 89.304 693.577 89.304C692.082 89.304 690.777 89.0127 689.663 88.43C688.548 87.822 687.674 87.024 687.041 86.036V89H680.543V60.88H687.041V70.798ZM696.313 78.36C696.313 76.7387 695.857 75.472 694.945 74.56C694.058 73.6227 692.956 73.154 691.639 73.154C690.347 73.154 689.245 73.6227 688.333 74.56C687.446 75.4973 687.003 76.7767 687.003 78.398C687.003 80.0193 687.446 81.2987 688.333 82.236C689.245 83.1733 690.347 83.642 691.639 83.642C692.931 83.642 694.033 83.1733 694.945 82.236C695.857 81.2733 696.313 79.9813 696.313 78.36ZM727.272 67.796V89H720.774V86.112C720.115 87.0493 719.216 87.8093 718.076 88.392C716.961 88.9493 715.72 89.228 714.352 89.228C712.73 89.228 711.299 88.8733 710.058 88.164C708.816 87.4293 707.854 86.378 707.17 85.01C706.486 83.642 706.144 82.0333 706.144 80.184V67.796H712.604V79.31C712.604 80.7287 712.971 81.8307 713.706 82.616C714.44 83.4013 715.428 83.794 716.67 83.794C717.936 83.794 718.937 83.4013 719.672 82.616C720.406 81.8307 720.774 80.7287 720.774 79.31V67.796H727.272ZM738.437 70.798C739.045 69.81 739.919 69.012 741.059 68.404C742.199 67.796 743.504 67.492 744.973 67.492C746.721 67.492 748.304 67.9353 749.723 68.822C751.142 69.7087 752.256 70.9753 753.067 72.622C753.903 74.2687 754.321 76.1813 754.321 78.36C754.321 80.5387 753.903 82.464 753.067 84.136C752.256 85.7827 751.142 87.062 749.723 87.974C748.304 88.8607 746.721 89.304 744.973 89.304C743.478 89.304 742.174 89.0127 741.059 88.43C739.944 87.822 739.07 87.024 738.437 86.036V89H731.939V60.88H738.437V70.798ZM747.709 78.36C747.709 76.7387 747.253 75.472 746.341 74.56C745.454 73.6227 744.352 73.154 743.035 73.154C741.743 73.154 740.641 73.6227 739.729 74.56C738.842 75.4973 738.399 76.7767 738.399 78.398C738.399 80.0193 738.842 81.2987 739.729 82.236C740.641 83.1733 741.743 83.642 743.035 83.642C744.327 83.642 745.429 83.1733 746.341 82.236C747.253 81.2733 747.709 79.9813 747.709 78.36ZM764.228 70.798C764.836 69.81 765.71 69.012 766.85 68.404C767.99 67.796 769.295 67.492 770.764 67.492C772.512 67.492 774.095 67.9353 775.514 68.822C776.933 69.7087 778.047 70.9753 778.858 72.622C779.694 74.2687 780.112 76.1813 780.112 78.36C780.112 80.5387 779.694 82.464 778.858 84.136C778.047 85.7827 776.933 87.062 775.514 87.974C774.095 88.8607 772.512 89.304 770.764 89.304C769.269 89.304 767.965 89.0127 766.85 88.43C765.735 87.822 764.861 87.024 764.228 86.036V89H757.73V60.88H764.228V70.798ZM773.5 78.36C773.5 76.7387 773.044 75.472 772.132 74.56C771.245 73.6227 770.143 73.154 768.826 73.154C767.534 73.154 766.432 73.6227 765.52 74.56C764.633 75.4973 764.19 76.7767 764.19 78.398C764.19 80.0193 764.633 81.2987 765.52 82.236C766.432 83.1733 767.534 83.642 768.826 83.642C770.118 83.642 771.22 83.1733 772.132 82.236C773.044 81.2733 773.5 79.9813 773.5 78.36ZM790.019 60.88V89H783.521V60.88H790.019ZM814.716 78.056C814.716 78.664 814.678 79.2973 814.602 79.956H799.896C799.998 81.2733 800.416 82.2867 801.15 82.996C801.91 83.68 802.835 84.022 803.924 84.022C805.546 84.022 806.673 83.338 807.306 81.97H814.222C813.868 83.3633 813.222 84.6173 812.284 85.732C811.372 86.8467 810.22 87.7207 808.826 88.354C807.433 88.9873 805.875 89.304 804.152 89.304C802.075 89.304 800.226 88.8607 798.604 87.974C796.983 87.0873 795.716 85.8207 794.804 84.174C793.892 82.5273 793.436 80.602 793.436 78.398C793.436 76.194 793.88 74.2687 794.766 72.622C795.678 70.9753 796.945 69.7087 798.566 68.822C800.188 67.9353 802.05 67.492 804.152 67.492C806.204 67.492 808.028 67.9227 809.624 68.784C811.22 69.6453 812.462 70.874 813.348 72.47C814.26 74.066 814.716 75.928 814.716 78.056ZM808.066 76.346C808.066 75.2313 807.686 74.3447 806.926 73.686C806.166 73.0273 805.216 72.698 804.076 72.698C802.987 72.698 802.062 73.0147 801.302 73.648C800.568 74.2813 800.112 75.1807 799.934 76.346H808.066Z" fill="white"/>
</g>
<defs>
<clipPath id="clip0_5_15">
<rect width="1340" height="463" fill="white"/>
</clipPath>
</defs>
</svg>
